<svg width="960" height="645" viewBox="0 0 960 645" fill="none" xmlns="http://www.w3.org/2000/svg">
<rect width="960" height="645" fill="#FAFAF9"/>
<rect x="288.274" y="158.712" width="157.842" height="328.577" rx="18.1674" fill="#FAFAF9" stroke="#9696FF" stroke-width="1.17209"/>
<rect x="285.149" y="155.586" width="164.093" height="334.828" rx="19.7302" stroke="#9696FF" stroke-width="1.17209"/>
<path d="M285.148 223.568V240.367H284.562C283.376 240.367 282.414 239.406 282.414 238.219V225.716C282.414 224.53 283.376 223.568 284.562 223.568H285.148Z" stroke="#9696FF" stroke-width="1.17209"/>
<path d="M285.148 245.447V262.246H284.562C283.376 262.246 282.414 261.284 282.414 260.098V247.595C282.414 246.408 283.376 245.447 284.562 245.447H285.148Z" stroke="#9696FF" stroke-width="1.17209"/>
<path d="M285.148 267.326V284.125H284.562C283.376 284.125 282.414 283.164 282.414 281.977V269.474C282.414 268.288 283.376 267.326 284.562 267.326H285.148Z" stroke="#9696FF" stroke-width="1.17209"/>
<path d="M449.242 240.758V266.935H449.828C451.015 266.935 451.977 265.972 451.977 264.786V242.907C451.976 241.72 451.015 240.758 449.828 240.758H449.242Z" stroke="#9696FF" stroke-width="1.17209"/>
<mask id="path-7-inside-1_2647_388" fill="white">
<path d="M424.823 164.377C433.454 164.377 440.451 171.374 440.451 180.005V465.995C440.451 474.626 433.454 481.623 424.823 481.623H309.567C300.936 481.623 293.939 474.626 293.939 465.995V180.005C293.939 171.374 300.936 164.377 309.567 164.377H330.665V167.503C330.665 172.681 334.863 176.879 340.042 176.879H394.544C399.722 176.879 403.921 172.681 403.921 167.503V164.377H424.823Z"/>
</mask>
<path d="M424.823 164.377V163.205V164.377ZM424.823 481.623V482.795V481.623ZM330.665 164.377H331.837V163.205H330.665V164.377ZM330.665 167.503H329.493V167.503L330.665 167.503ZM403.921 167.503L405.093 167.503V167.503H403.921ZM403.921 164.377V163.205H402.749V164.377H403.921ZM424.823 164.377V165.549C432.807 165.549 439.279 172.021 439.279 180.005H440.451H441.623C441.623 170.726 434.102 163.205 424.823 163.205V164.377ZM440.451 180.005H439.279V465.995H440.451H441.623V180.005H440.451ZM440.451 465.995H439.279C439.279 473.979 432.807 480.451 424.823 480.451V481.623V482.795C434.102 482.795 441.623 475.273 441.623 465.995H440.451ZM424.823 481.623V480.451H309.567V481.623V482.795H424.823V481.623ZM309.567 481.623V480.451C301.584 480.451 295.112 473.979 295.112 465.995H293.939H292.767C292.767 475.273 300.289 482.795 309.567 482.795V481.623ZM293.939 465.995H295.112V180.005H293.939H292.767V465.995H293.939ZM293.939 180.005H295.112C295.112 172.021 301.584 165.549 309.567 165.549V164.377V163.205C300.289 163.205 292.767 170.726 292.767 180.005H293.939ZM309.567 164.377V165.549H330.665V164.377V163.205H309.567V164.377ZM330.665 164.377H329.493V167.503H330.665H331.837V164.377H330.665ZM330.665 167.503L329.493 167.503C329.493 173.329 334.216 178.051 340.042 178.051V176.879V175.707C335.511 175.707 331.837 172.034 331.837 167.503L330.665 167.503ZM340.042 176.879V178.051H394.544V176.879V175.707H340.042V176.879ZM394.544 176.879V178.051C400.37 178.051 405.093 173.329 405.093 167.503L403.921 167.503L402.749 167.503C402.749 172.034 399.075 175.707 394.544 175.707V176.879ZM403.921 167.503H405.093V164.377H403.921H402.749V167.503H403.921ZM403.921 164.377V165.549H424.823V164.377V163.205H403.921V164.377Z" fill="#9696FF" mask="url(#path-7-inside-1_2647_388)"/>
<rect x="355.474" y="168.088" width="23.8326" height="1.95349" rx="0.976744" stroke="#9696FF" stroke-width="1.17209"/>
<circle cx="387.707" cy="169.065" r="0.976744" stroke="#9696FF" stroke-width="1.17209"/>
<g opacity="0.2">
<path d="M353.916 314.759C353.901 319.091 356.949 324.361 360.718 326.54L458.927 383.238C462.696 385.416 465.763 383.672 465.773 379.34L465.98 306.673L466 299.59C466.01 295.258 462.967 289.983 459.198 287.81L360.989 231.106C357.22 228.933 354.153 230.677 354.143 235.009L354.124 242.096L353.916 314.759Z" fill="#BFBEED"/>
</g>
<g opacity="0.2">
<path d="M346.229 322.866C346.215 327.198 349.262 332.468 353.031 334.646L451.24 391.345C455.008 393.523 458.075 391.78 458.085 387.447L458.293 314.78L458.313 307.697C458.323 303.365 455.28 298.09 451.511 295.916L353.302 239.213C349.534 237.04 346.467 238.783 346.457 243.115L346.437 250.203L346.229 322.866Z" fill="#BFBEED"/>
</g>
<path d="M342.968 244.312L341.252 245.309C342.475 244.599 344.169 244.698 346.037 245.777L347.753 244.78C345.884 243.702 344.19 243.601 342.968 244.312Z" fill="#F4F4FA"/>
<mask id="mask0_2647_388" style="mask-type:luminance" maskUnits="userSpaceOnUse" x="341" y="243" width="7" height="3">
<path d="M342.968 244.312L341.252 245.309C342.475 244.599 344.169 244.698 346.037 245.777L347.753 244.78C345.884 243.702 344.19 243.601 342.968 244.312Z" fill="white"/>
</mask>
<g mask="url(#mask0_2647_388)">
<path d="M346.037 245.777L347.753 244.78C345.884 243.701 344.19 243.601 342.968 244.312L341.252 245.309C342.475 244.599 344.168 244.698 346.037 245.777Z" fill="#544AFF"/>
</g>
<path d="M447.342 396.171L449.058 395.175C450.264 394.474 451.012 392.983 451.018 390.864L449.303 391.861C449.296 393.98 448.548 395.47 447.342 396.171Z" fill="#F4F4FA"/>
<mask id="mask1_2647_388" style="mask-type:luminance" maskUnits="userSpaceOnUse" x="447" y="390" width="5" height="7">
<path d="M447.342 396.171L449.058 395.175C450.264 394.474 451.012 392.983 451.018 390.864L449.303 391.861C449.296 393.98 448.548 395.47 447.342 396.171Z" fill="white"/>
</mask>
<g mask="url(#mask1_2647_388)">
<path d="M447.342 396.171L449.058 395.175C450.264 394.474 451.012 392.983 451.018 390.864L449.303 391.861C449.296 393.98 448.548 395.47 447.342 396.171Z" fill="#D3D3F5"/>
</g>
<path d="M449.526 313.266L451.241 312.27L451.221 319.257L449.506 320.247L449.526 313.266Z" fill="#544AFF"/>
<path d="M451.221 319.257L451.018 390.864L449.303 391.861L449.506 320.247L451.221 319.257Z" fill="#D3D3F5"/>
<path d="M442.822 301.655L444.537 300.659L347.753 244.78L346.037 245.777L442.822 301.655Z" fill="#544AFF"/>
<path d="M449.526 313.266L451.241 312.269C451.253 308.002 448.251 302.802 444.537 300.658L442.822 301.656C446.536 303.8 449.538 308.999 449.526 313.266Z" fill="#F4F4FA"/>
<mask id="mask2_2647_388" style="mask-type:luminance" maskUnits="userSpaceOnUse" x="442" y="300" width="10" height="14">
<path d="M449.526 313.266L451.241 312.269C451.253 308.002 448.251 302.802 444.537 300.658L442.822 301.656C446.536 303.8 449.538 308.999 449.526 313.266Z" fill="white"/>
</mask>
<g mask="url(#mask2_2647_388)">
<path d="M449.526 313.266L451.241 312.269C451.253 308.002 448.251 302.802 444.537 300.658L442.822 301.656C446.536 303.8 449.538 308.999 449.526 313.266Z" fill="#544AFF"/>
</g>
<path d="M339.068 328.215C339.053 332.484 342.057 337.678 345.771 339.825L442.555 395.701C446.27 397.848 449.292 396.13 449.302 391.861L449.506 320.248L449.526 313.267C449.536 308.998 446.537 303.8 442.823 301.658L346.039 245.776C342.324 243.635 339.302 245.353 339.292 249.622L339.272 256.607L339.068 328.215Z" fill="#F4F4FA"/>
<path d="M339.272 256.607L449.505 320.247L449.525 313.266C449.535 308.998 446.537 303.799 442.822 301.657L346.039 245.776C342.324 243.635 339.302 245.353 339.292 249.622L339.272 256.607Z" fill="#9696FF"/>
<path d="M435.507 305.184C435.507 306.097 434.865 306.468 434.073 306.011C433.282 305.554 432.64 304.443 432.64 303.528C432.64 302.614 433.282 302.244 434.073 302.701C434.865 303.158 435.507 304.269 435.507 305.184Z" fill="#00FFBE"/>
<path d="M440.022 307.791C440.022 308.705 439.38 309.075 438.589 308.618C437.797 308.162 437.155 307.05 437.155 306.136C437.155 305.222 437.797 304.851 438.589 305.308C439.38 305.765 440.022 306.876 440.022 307.791Z" fill="#00FFBE"/>
<path d="M444.537 310.397C444.537 311.311 443.896 311.682 443.104 311.225C442.312 310.767 441.67 309.656 441.67 308.742C441.67 307.827 442.312 307.457 443.104 307.914C443.896 308.372 444.537 309.483 444.537 310.397Z" fill="#00FFBE"/>
<path d="M297.374 293.915L323.753 278.586C324.397 278.211 325.289 278.264 326.276 278.833L299.897 294.163C298.911 293.594 298.019 293.541 297.374 293.915Z" fill="#9696FF"/>
<mask id="mask3_2647_388" style="mask-type:luminance" maskUnits="userSpaceOnUse" x="297" y="278" width="30" height="17">
<path d="M297.374 293.915L323.753 278.586C324.397 278.211 325.289 278.264 326.276 278.833L299.897 294.163C298.911 293.594 298.019 293.541 297.374 293.915Z" fill="white"/>
</mask>
<g mask="url(#mask3_2647_388)">
<path d="M297.374 293.915L323.753 278.586C324.387 278.217 325.261 278.263 326.228 278.807L299.849 294.136C298.882 293.592 298.008 293.547 297.374 293.915Z" fill="#9696FF"/>
<path d="M299.85 294.136L326.229 278.807C326.244 278.816 326.26 278.824 326.276 278.833L299.897 294.163C299.881 294.155 299.865 294.145 299.85 294.136Z" fill="#9696FF"/>
</g>
<path d="M398.756 398.331L372.377 413.66C377.287 410.807 380.342 404.76 380.366 396.189L406.745 380.859C406.721 389.43 403.666 395.478 398.756 398.331Z" fill="#544AFF"/>
<mask id="mask4_2647_388" style="mask-type:luminance" maskUnits="userSpaceOnUse" x="372" y="380" width="35" height="34">
<path d="M398.756 398.331L372.377 413.66C377.287 410.807 380.342 404.76 380.366 396.189L406.745 380.859C406.721 389.43 403.666 395.478 398.756 398.331Z" fill="white"/>
</mask>
<g mask="url(#mask4_2647_388)">
<path d="M380.366 396.19L406.745 380.86C406.721 389.431 403.666 395.479 398.756 398.331L372.377 413.661C377.287 410.807 380.342 404.76 380.366 396.19Z" fill="#544AFF"/>
</g>
<path d="M380.512 344.786L406.891 329.457L406.745 380.859L380.366 396.19L380.512 344.786Z" fill="#544AFF"/>
<path d="M299.897 294.163L326.276 278.833L403.358 323.337L376.979 338.667L299.897 294.163Z" fill="#00FFBE"/>
<path d="M376.979 338.666L403.358 323.337C405.317 324.468 406.897 327.205 406.891 329.457L380.512 344.786C380.519 342.534 378.938 339.798 376.979 338.666Z" fill="#9696FF"/>
<mask id="mask5_2647_388" style="mask-type:luminance" maskUnits="userSpaceOnUse" x="376" y="323" width="31" height="22">
<path d="M376.979 338.666L403.358 323.337C405.317 324.468 406.897 327.205 406.891 329.457L380.512 344.786C380.519 342.534 378.938 339.798 376.979 338.666Z" fill="white"/>
</mask>
<g mask="url(#mask5_2647_388)">
<path d="M376.979 338.666L403.358 323.337C403.781 323.582 404.187 323.901 404.563 324.275L378.184 339.604C377.809 339.231 377.402 338.911 376.979 338.666Z" fill="#9696FF"/>
<path d="M378.184 339.604L404.563 324.275C405.926 325.629 406.896 327.692 406.891 329.457L380.512 344.786C380.517 343.021 379.548 340.959 378.184 339.604Z" fill="#9696FF"/>
</g>
<path d="M376.979 338.667C378.938 339.798 380.518 342.534 380.512 344.786L380.366 396.19C380.318 413.443 367.986 420.47 352.972 411.801L323.412 394.734C308.396 386.065 296.146 364.846 296.194 347.593L296.34 296.19C296.346 293.938 297.937 293.032 299.896 294.163L376.979 338.667Z" fill="#9696FF"/>
<path d="M324.078 293.422C320.769 295.333 315.354 295.333 312.045 293.422C308.736 291.512 308.736 288.385 312.045 286.475C315.354 284.564 320.769 284.564 324.078 286.475C327.387 288.386 327.387 291.512 324.078 293.422Z" fill="#544AFF"/>
<path d="M388.658 330.517C385.349 332.428 379.934 332.428 376.625 330.517C373.316 328.606 373.316 325.48 376.625 323.569C379.934 321.659 385.349 321.659 388.658 323.569C391.967 325.48 391.967 328.606 388.658 330.517Z" fill="#544AFF"/>
<path d="M310.231 256.766L310.354 289.521C310.359 290.66 311.107 291.793 312.601 292.658C315.589 294.386 320.418 294.368 323.394 292.618C324.886 291.741 325.625 290.591 325.617 289.448L325.493 256.709C325.472 250.996 327.075 246.777 329.896 245.135C332.715 243.493 337.176 244.18 342.136 247.021L350.564 251.842C363.769 259.4 374.97 278.639 375.027 293.853L375.15 326.608C375.155 327.747 375.907 328.884 377.4 329.746C379.315 330.853 381.991 331.243 384.449 330.918C385.819 330.737 387.125 330.332 388.19 329.705C388.593 329.467 388.941 329.214 389.23 328.945C390.027 328.21 390.42 327.373 390.412 326.538L390.293 293.795C390.255 283.842 386.916 272.657 380.889 262.31C374.867 251.967 366.787 243.542 358.146 238.597L349.717 233.771C344.954 231.047 340.211 229.47 335.625 229.087C330.758 228.686 326.12 229.674 322.215 231.947C318.31 234.221 315.166 237.766 313.116 242.195C311.179 246.377 310.21 251.277 310.231 256.766Z" fill="#DADAF9"/>
<path d="M325.684 246.934C326.544 246.433 327.557 246.152 328.688 246.079C326.626 248.117 325.476 251.874 325.493 256.71L325.617 289.449C325.627 290.593 324.886 291.74 323.394 292.618C322.799 292.968 322.127 293.246 321.413 293.457L321.282 258.506C321.26 252.794 322.865 248.576 325.684 246.934Z" fill="#BFBEED"/>
<path d="M321.191 233.882C323.855 233.129 326.712 232.863 329.655 233.108C334.245 233.486 338.984 235.064 343.751 237.788L352.18 242.614C360.822 247.559 368.897 255.983 374.923 266.331C380.95 276.674 384.286 287.858 384.323 297.817L384.447 330.919C385.818 330.738 387.124 330.334 388.189 329.706C388.592 329.469 388.939 329.215 389.229 328.946L389.105 295.82C389.067 285.862 385.728 274.681 379.705 264.334C373.677 253.987 365.599 245.566 356.958 240.621L348.529 235.796C343.766 233.067 339.022 231.494 334.436 231.111C329.634 230.713 325.06 231.674 321.191 233.882Z" fill="#F4F4FA"/>
<path d="M328.189 349.372C328.172 344.989 331.242 343.201 335.047 345.378C338.851 347.555 341.949 352.874 341.965 357.256C341.975 360.145 340.642 361.896 338.644 362.139L338.691 374.616L331.607 370.561L331.56 358.085C329.553 355.55 328.2 352.261 328.189 349.372Z" fill="#544AFF"/>
<path d="M330.579 322.825L331.967 322.02L331.926 339.805L330.538 340.611L330.579 322.825Z" fill="#E5E3E8"/>
<path d="M267.04 286.141L268.428 285.335L331.967 322.02L330.579 322.825L267.04 286.141Z" fill="#E5E3E8"/>
<path d="M330.579 322.825L330.538 340.611L267 303.927L267.04 286.141L330.579 322.825Z" fill="#F9F7FC"/>
<path d="M271.084 295.778L273.705 296.878L273.8 298.979L271.084 297.303V295.778ZM272.461 298.316L274.177 299.829L273.252 302.235L271.988 301.048L272.461 298.316ZM274.78 295.561L275.93 298.969L274.27 298.751L273.516 295.31L274.78 295.561ZM274.836 300.08L276.987 303.259L276.194 304.021L273.875 301.244L274.836 300.08ZM277.138 298.925L277.911 300.613L276.006 301.625L274.894 299.393L277.138 298.925Z" fill="#00FFBE"/>
<path d="M278.968 300.33L281.589 301.43L281.683 303.532L278.968 301.855V300.33ZM280.345 302.868L282.061 304.381L281.137 306.787L279.873 305.6L280.345 302.868ZM282.664 300.113L283.815 303.521L282.155 303.303L281.401 299.862L282.664 300.113ZM282.721 304.631L284.87 307.81L284.078 308.573L281.758 305.796L282.721 304.631ZM285.022 303.477L285.795 305.165L283.89 306.177L282.777 303.945L285.022 303.477Z" fill="#00FFBE"/>
<path d="M286.852 304.882L289.473 305.982L289.567 308.083L286.852 306.406V304.882ZM288.228 307.419L289.944 308.932L289.02 311.339L287.756 310.152L288.228 307.419ZM290.548 304.664L291.698 308.072L290.039 307.854L289.285 304.413L290.548 304.664ZM290.604 309.183L292.754 312.363L291.962 313.125L289.642 310.349L290.604 309.183ZM292.906 308.029L293.679 309.717L291.774 310.729L290.661 308.497L292.906 308.029Z" fill="#00FFBE"/>
<path d="M294.736 309.434L297.358 310.533L297.452 312.635L294.736 310.959V309.434ZM296.113 311.971L297.829 313.484L296.905 315.89L295.641 314.703L296.113 311.971ZM298.432 309.216L299.583 312.624L297.924 312.406L297.17 308.965L298.432 309.216ZM298.489 313.735L300.638 316.914L299.846 317.676L297.526 314.9L298.489 313.735ZM300.79 312.58L301.563 314.268L299.658 315.281L298.546 313.049L300.79 312.58Z" fill="#00FFBE"/>
<path d="M302.62 313.985L305.24 315.085L305.335 317.186L302.62 315.509V313.985ZM303.996 316.523L305.713 318.036L304.789 320.442L303.525 319.256L303.996 316.523ZM306.316 313.767L307.466 317.175L305.807 316.957L305.053 313.516L306.316 313.767ZM306.372 318.286L308.522 321.465L307.73 322.228L305.41 319.451L306.372 318.286ZM308.674 317.132L309.447 318.82L307.542 319.832L306.43 317.6L308.674 317.132Z" fill="#00FFBE"/>
<path d="M310.504 318.537L313.124 319.637L313.219 321.738L310.504 320.062V318.537ZM311.881 321.074L313.597 322.587L312.673 324.994L311.41 323.807L311.881 321.074ZM314.2 318.319L315.351 321.727L313.69 321.509L312.936 318.068L314.2 318.319ZM314.257 322.838L316.406 326.018L315.614 326.78L313.294 324.004L314.257 322.838ZM316.558 321.684L317.33 323.372L315.425 324.384L314.313 322.152L316.558 321.684Z" fill="#00FFBE"/>
</svg>
