<svg width="960" height="645" viewBox="0 0 960 645" fill="none" xmlns="http://www.w3.org/2000/svg">
<rect width="960" height="645" fill="#FAFAF9"/>
<rect x="497.274" y="158.712" width="157.842" height="328.577" rx="18.1674" fill="#FAFAF9" stroke="#9696FF" stroke-width="1.17209"/>
<rect x="494.149" y="155.586" width="164.093" height="334.828" rx="19.7302" stroke="#9696FF" stroke-width="1.17209"/>
<path d="M494.148 223.568V240.367H493.562C492.376 240.367 491.414 239.406 491.414 238.219V225.716C491.414 224.53 492.376 223.568 493.562 223.568H494.148Z" stroke="#9696FF" stroke-width="1.17209"/>
<path d="M494.148 245.447V262.246H493.562C492.376 262.246 491.414 261.284 491.414 260.098V247.595C491.414 246.408 492.376 245.447 493.562 245.447H494.148Z" stroke="#9696FF" stroke-width="1.17209"/>
<path d="M494.148 267.326V284.125H493.562C492.376 284.125 491.414 283.164 491.414 281.977V269.474C491.414 268.288 492.376 267.326 493.562 267.326H494.148Z" stroke="#9696FF" stroke-width="1.17209"/>
<path d="M658.242 240.758V266.935H658.828C660.015 266.935 660.977 265.972 660.977 264.786V242.907C660.976 241.72 660.015 240.758 658.828 240.758H658.242Z" stroke="#9696FF" stroke-width="1.17209"/>
<mask id="path-7-inside-1_2647_355" fill="white">
<path d="M633.823 164.377C642.454 164.377 649.451 171.374 649.451 180.005V465.995C649.451 474.626 642.454 481.623 633.823 481.623H518.567C509.936 481.623 502.939 474.626 502.939 465.995V180.005C502.939 171.374 509.936 164.377 518.567 164.377H539.665V167.503C539.665 172.681 543.863 176.879 549.042 176.879H603.544C608.722 176.879 612.921 172.681 612.921 167.503V164.377H633.823Z"/>
</mask>
<path d="M633.823 164.377V163.205V164.377ZM633.823 481.623V482.795V481.623ZM539.665 164.377H540.837V163.205H539.665V164.377ZM539.665 167.503H538.493V167.503L539.665 167.503ZM612.921 167.503L614.093 167.503V167.503H612.921ZM612.921 164.377V163.205H611.749V164.377H612.921ZM633.823 164.377V165.549C641.807 165.549 648.279 172.021 648.279 180.005H649.451H650.623C650.623 170.726 643.102 163.205 633.823 163.205V164.377ZM649.451 180.005H648.279V465.995H649.451H650.623V180.005H649.451ZM649.451 465.995H648.279C648.279 473.979 641.807 480.451 633.823 480.451V481.623V482.795C643.102 482.795 650.623 475.273 650.623 465.995H649.451ZM633.823 481.623V480.451H518.567V481.623V482.795H633.823V481.623ZM518.567 481.623V480.451C510.584 480.451 504.112 473.979 504.112 465.995H502.939H501.767C501.767 475.273 509.289 482.795 518.567 482.795V481.623ZM502.939 465.995H504.112V180.005H502.939H501.767V465.995H502.939ZM502.939 180.005H504.112C504.112 172.021 510.584 165.549 518.567 165.549V164.377V163.205C509.289 163.205 501.767 170.726 501.767 180.005H502.939ZM518.567 164.377V165.549H539.665V164.377V163.205H518.567V164.377ZM539.665 164.377H538.493V167.503H539.665H540.837V164.377H539.665ZM539.665 167.503L538.493 167.503C538.493 173.329 543.216 178.051 549.042 178.051V176.879V175.707C544.511 175.707 540.837 172.034 540.837 167.503L539.665 167.503ZM549.042 176.879V178.051H603.544V176.879V175.707H549.042V176.879ZM603.544 176.879V178.051C609.37 178.051 614.093 173.329 614.093 167.503L612.921 167.503L611.749 167.503C611.749 172.034 608.075 175.707 603.544 175.707V176.879ZM612.921 167.503H614.093V164.377H612.921H611.749V167.503H612.921ZM612.921 164.377V165.549H633.823V164.377V163.205H612.921V164.377Z" fill="#9696FF" mask="url(#path-7-inside-1_2647_355)"/>
<rect x="564.474" y="168.088" width="23.8326" height="1.95349" rx="0.976744" stroke="#9696FF" stroke-width="1.17209"/>
<circle cx="596.707" cy="169.065" r="0.976744" stroke="#9696FF" stroke-width="1.17209"/>
<path d="M632.889 431.256C634.654 433.294 637.737 433.511 639.775 431.745C641.825 429.966 642.043 426.883 640.277 424.846L502.546 266.104C497.073 259.789 495.878 253.989 497.304 249.956C497.779 248.638 498.553 247.497 499.558 246.628C500.577 245.745 501.813 245.134 503.185 244.862C507.368 244.02 512.95 246.017 518.437 252.332C520.202 254.37 523.285 254.587 525.322 252.821C527.373 251.042 527.591 247.959 525.811 245.922C517.73 236.591 508.59 233.821 501.27 235.301C498.159 235.926 495.402 237.284 493.148 239.24C490.907 241.182 489.168 243.735 488.109 246.71C485.61 253.758 487.077 263.198 495.158 272.515L632.889 431.256Z" fill="#544AFF"/>
<path d="M514.661 280.066L502.546 266.104C497.073 259.789 495.878 253.989 497.304 249.956C497.779 248.638 498.553 247.497 499.558 246.628C500.577 245.745 501.813 245.134 503.184 244.862C507.368 244.02 512.95 246.017 518.437 252.332C520.202 254.37 523.285 254.587 525.322 252.821C527.373 251.042 527.591 247.959 525.811 245.922C517.73 236.591 508.59 233.821 501.269 235.301C498.159 235.926 495.402 237.284 493.148 239.24C490.907 241.182 489.168 243.735 488.109 246.71C485.61 253.758 487.077 263.198 495.158 272.515L507.273 286.476L514.661 280.066Z" fill="#00FFBE"/>
<path d="M594.738 321.109C595.349 323.405 595.756 339.132 594.874 341.631C594.004 344.062 592.578 343.601 588.137 342.161C583.696 340.721 570.508 336.497 570.454 331.391C570.4 326.121 584.891 320.553 589.088 319.48C593.285 318.407 594.154 318.923 594.738 321.109Z" fill="#00FFBE"/>
<path d="M543.087 320.39C542.408 322.671 541.566 338.399 542.381 340.912C543.182 343.37 544.622 342.949 549.104 341.631C553.572 340.314 566.882 336.443 567.072 331.337C567.262 326.08 552.934 320.105 548.778 318.923C544.608 317.741 543.725 318.23 543.087 320.39Z" fill="#00FFBE"/>
<path d="M575.086 326.053C575.873 327.276 576.416 335.425 574.855 336.117C573.293 336.824 564.41 337.285 563.337 335.941C562.264 334.583 562.006 327.262 563.446 326.339C564.872 325.415 573.741 325.252 575.086 326.053Z" fill="#9696FF"/>
<path d="M573.917 325.103L564.628 324.98C563.989 324.967 563.46 325.483 563.446 326.121L563.31 335.737C563.31 336.375 563.826 336.905 564.465 336.919L573.754 337.041C574.393 337.055 574.922 336.538 574.936 335.9L575.072 326.284C575.072 325.646 574.556 325.116 573.917 325.103Z" fill="#00FFBE"/>
<path d="M575.642 331.051C576.09 329.15 587.472 323.391 589.02 325.632C590.582 327.873 577.666 329.693 579.228 330.78C580.803 331.853 591.465 332.64 590.568 335.683C589.685 338.738 575.52 332.206 575.642 331.051Z" fill="#9696FF"/>
<path d="M562.644 330.861C562.251 328.96 551.032 322.889 549.416 325.089C547.8 327.275 560.661 329.462 559.059 330.494C557.456 331.54 546.781 332.015 547.582 335.098C548.384 338.168 562.726 332.029 562.644 330.861Z" fill="#9696FF"/>
<path d="M602.71 255.266C613.929 261.962 625.921 280.473 616.292 294.87C606.676 309.28 584.321 317.619 553.124 298.904C491.749 262.084 520.664 252.251 559.534 261.147C577.544 265.262 598.486 252.753 602.71 255.266Z" fill="#9696FF"/>
<path d="M599.478 256.963C609.094 262.709 619.375 278.572 611.118 290.931C602.874 303.277 583.52 310.679 556.968 294.381C496.788 257.439 529.139 254.383 562.468 262.002C577.897 265.533 595.852 254.804 599.478 256.963Z" fill="#544AFF"/>
<path d="M527.278 222.833C527.278 222.833 608.904 222.684 610.221 222.684C603.906 234.038 600.13 258.838 601.04 281.505L540.032 281.641L536.487 278.857C537.03 256.977 533.349 233.739 527.278 222.833Z" fill="#9696FF"/>
<path d="M568.716 213C545.668 213 526.993 216.939 526.993 221.787C526.993 226.636 545.668 230.575 568.716 230.575C591.764 230.575 610.438 226.636 610.438 221.787C610.438 216.939 591.764 213 568.716 213Z" fill="#00FFBE"/>
<path d="M546.931 286.585C552.676 287.685 560.322 288.351 568.716 288.351C586.616 288.351 601.122 285.309 601.122 281.533C601.122 281.352 601.09 281.171 601.027 280.99C600.959 278.83 600.972 276.059 600.959 273.873C600.959 277.621 586.521 280.664 568.716 280.664C551.562 280.664 537.546 277.839 536.541 274.28C536.528 275.706 536.528 277.336 536.514 278.871C539.348 281.198 542.82 283.769 546.931 286.585Z" fill="#00FFBE"/>
</svg>
