<svg width="960" height="645" viewBox="0 0 960 645" fill="none" xmlns="http://www.w3.org/2000/svg">
<rect width="960" height="645" fill="#FAFAF9"/>
<rect x="317.274" y="158.712" width="157.842" height="328.577" rx="18.1674" fill="#FAFAF9" stroke="#9696FF" stroke-width="1.17209"/>
<rect x="314.149" y="155.586" width="164.093" height="334.828" rx="19.7302" stroke="#9696FF" stroke-width="1.17209"/>
<path d="M314.148 223.568V240.367H313.562C312.376 240.367 311.414 239.406 311.414 238.219V225.716C311.414 224.53 312.376 223.568 313.562 223.568H314.148Z" stroke="#9696FF" stroke-width="1.17209"/>
<path d="M314.148 245.447V262.246H313.562C312.376 262.246 311.414 261.284 311.414 260.098V247.595C311.414 246.408 312.376 245.447 313.562 245.447H314.148Z" stroke="#9696FF" stroke-width="1.17209"/>
<path d="M314.148 267.326V284.125H313.562C312.376 284.125 311.414 283.164 311.414 281.977V269.474C311.414 268.288 312.376 267.326 313.562 267.326H314.148Z" stroke="#9696FF" stroke-width="1.17209"/>
<path d="M478.242 240.758V266.935H478.828C480.015 266.935 480.977 265.972 480.977 264.786V242.907C480.976 241.72 480.015 240.758 478.828 240.758H478.242Z" stroke="#9696FF" stroke-width="1.17209"/>
<mask id="path-7-inside-1_2647_330" fill="white">
<path d="M453.823 164.377C462.454 164.377 469.451 171.374 469.451 180.005V465.995C469.451 474.626 462.454 481.623 453.823 481.623H338.567C329.936 481.623 322.939 474.626 322.939 465.995V180.005C322.939 171.374 329.936 164.377 338.567 164.377H359.665V167.503C359.665 172.681 363.863 176.879 369.042 176.879H423.544C428.722 176.879 432.921 172.681 432.921 167.503V164.377H453.823Z"/>
</mask>
<path d="M453.823 164.377V163.205V164.377ZM453.823 481.623V482.795V481.623ZM359.665 164.377H360.837V163.205H359.665V164.377ZM359.665 167.503H358.493V167.503L359.665 167.503ZM432.921 167.503L434.093 167.503V167.503H432.921ZM432.921 164.377V163.205H431.749V164.377H432.921ZM453.823 164.377V165.549C461.807 165.549 468.279 172.021 468.279 180.005H469.451H470.623C470.623 170.726 463.102 163.205 453.823 163.205V164.377ZM469.451 180.005H468.279V465.995H469.451H470.623V180.005H469.451ZM469.451 465.995H468.279C468.279 473.979 461.807 480.451 453.823 480.451V481.623V482.795C463.102 482.795 470.623 475.273 470.623 465.995H469.451ZM453.823 481.623V480.451H338.567V481.623V482.795H453.823V481.623ZM338.567 481.623V480.451C330.584 480.451 324.112 473.979 324.112 465.995H322.939H321.767C321.767 475.273 329.289 482.795 338.567 482.795V481.623ZM322.939 465.995H324.112V180.005H322.939H321.767V465.995H322.939ZM322.939 180.005H324.112C324.112 172.021 330.584 165.549 338.567 165.549V164.377V163.205C329.289 163.205 321.767 170.726 321.767 180.005H322.939ZM338.567 164.377V165.549H359.665V164.377V163.205H338.567V164.377ZM359.665 164.377H358.493V167.503H359.665H360.837V164.377H359.665ZM359.665 167.503L358.493 167.503C358.493 173.329 363.216 178.051 369.042 178.051V176.879V175.707C364.511 175.707 360.837 172.034 360.837 167.503L359.665 167.503ZM369.042 176.879V178.051H423.544V176.879V175.707H369.042V176.879ZM423.544 176.879V178.051C429.37 178.051 434.093 173.329 434.093 167.503L432.921 167.503L431.749 167.503C431.749 172.034 428.075 175.707 423.544 175.707V176.879ZM432.921 167.503H434.093V164.377H432.921H431.749V167.503H432.921ZM432.921 164.377V165.549H453.823V164.377V163.205H432.921V164.377Z" fill="#9696FF" mask="url(#path-7-inside-1_2647_330)"/>
<rect x="384.474" y="168.088" width="23.8326" height="1.95349" rx="0.976744" stroke="#9696FF" stroke-width="1.17209"/>
<circle cx="416.707" cy="169.065" r="0.976744" stroke="#9696FF" stroke-width="1.17209"/>
<path d="M358.334 241.766C369.275 244.506 376.428 253.674 374.292 262.278C372.136 270.881 361.538 275.637 350.577 272.896C339.615 270.176 332.483 260.988 334.618 252.405C336.754 243.801 347.373 239.046 358.334 241.766Z" fill="#544AFF"/>
<path d="M364.016 247.408C371.048 251.659 377.657 262.741 395.63 264.192C413.624 265.623 397.242 279.324 394.059 275.999C390.855 272.675 372.459 264.978 363.15 269.169C353.821 273.38 353.76 252.143 364.016 247.408Z" fill="#544AFF"/>
<path d="M444.754 267.537C436.553 267.98 425.532 274.669 408.969 267.516C392.427 260.343 400.446 280.11 404.839 278.679C409.211 277.248 429.078 279.062 435.324 287.142C441.591 295.222 451.625 276.503 444.754 267.537Z" fill="#544AFF"/>
<path d="M402.884 263.688C408.143 264.998 411.589 269.431 410.561 273.561C410.534 273.642 410.514 273.722 410.501 273.803L410.037 275.657L409.654 275.556C407.74 278.397 403.489 279.767 399.157 278.679C394.804 277.591 391.701 274.408 391.318 271.002L390.956 270.902L391.48 268.806L391.5 268.725C392.568 264.635 397.645 262.399 402.884 263.688Z" fill="#544AFF"/>
<path d="M402.421 265.521C407.7 266.831 411.145 271.264 410.098 275.394C409.07 279.525 403.972 281.822 398.693 280.512C393.414 279.203 389.989 274.77 391.016 270.639C392.044 266.509 397.162 264.212 402.421 265.521Z" fill="#9696FF"/>
<path d="M357.428 245.373C368.389 248.093 375.542 257.281 373.386 265.884C371.25 274.468 360.631 279.243 349.67 276.503C338.729 273.783 331.576 264.595 333.712 255.991C335.868 247.408 346.487 242.652 357.428 245.373Z" fill="#9696FF"/>
<path d="M333.45 257.361L330.79 276.584L366.293 285.429L372.983 267.194L333.45 257.361Z" fill="#9696FF"/>
<path d="M391.218 269.854L410.299 274.609L404.657 297.237L385.576 292.481L391.218 269.854Z" fill="#9696FF"/>
<path d="M358.415 269.914C365.447 274.166 372.056 285.248 390.029 286.699C408.002 288.129 391.641 301.831 388.437 298.506C385.253 295.181 366.857 287.484 357.548 291.675C348.219 295.887 348.139 274.649 358.415 269.914Z" fill="#544AFF"/>
<path d="M351.987 267.235C361.8 269.673 368.187 277.893 366.273 285.59C366.233 285.752 366.192 285.906 366.152 286.054L365.286 289.479L364.6 289.318C361.014 294.577 353.136 297.136 345.036 295.121C336.956 293.106 331.193 287.162 330.488 280.815L329.783 280.634L330.75 276.745L330.79 276.584C332.805 268.988 342.255 264.817 351.987 267.235Z" fill="#544AFF"/>
<path d="M351.141 270.64C360.954 273.098 367.341 281.299 365.427 288.996C363.513 296.713 354.002 300.964 344.189 298.526C334.397 296.068 327.99 287.847 329.904 280.15C331.818 272.453 341.328 268.202 351.141 270.64Z" fill="#9696FF"/>
<path d="M318.318 299.755L331.072 277.269L365.769 286.154L366.475 311.965L318.318 299.755Z" fill="#9696FF"/>
<path d="M346.124 290.769C359.765 294.154 368.671 305.598 366.011 316.298C365.957 316.513 365.897 316.721 365.83 316.922L364.782 321.133L364.016 320.952C359.201 328.629 347.978 332.417 336.472 329.536C324.947 326.674 316.807 318.071 316.162 309.024L315.376 308.822L316.585 303.986C319.265 293.287 332.483 287.363 346.124 290.769Z" fill="#9696FF"/>
<path d="M345.096 294.94C358.737 298.325 367.623 309.77 364.963 320.469C362.304 331.188 349.066 337.112 335.425 333.707C321.784 330.322 312.878 318.877 315.558 308.158C318.217 297.458 331.435 291.534 345.096 294.94Z" fill="#544AFF"/>
<path d="M343.625 300.843C353.76 303.362 360.49 311.462 358.637 318.897C356.783 326.352 347.051 330.342 336.896 327.803C326.74 325.264 320.011 317.184 321.864 309.749C323.718 302.294 333.47 298.305 343.625 300.843Z" fill="#00FFBE"/>
<path d="M452.511 265.219C463.473 267.959 470.606 277.147 468.47 285.731C466.334 294.335 455.715 299.09 444.754 296.37C433.813 293.629 426.66 284.462 428.796 275.858C430.952 267.254 441.55 262.499 452.511 265.219Z" fill="#544AFF"/>
<path d="M451.625 268.826C462.566 271.566 469.719 280.734 467.583 289.338C465.427 297.942 454.809 302.697 443.868 299.977C432.906 297.236 425.753 288.048 427.909 279.465C430.045 270.861 440.664 266.106 451.625 268.826Z" fill="#9696FF"/>
<path d="M427.647 280.835L424.988 300.057L460.49 308.903L467.16 290.668L427.647 280.835Z" fill="#9696FF"/>
<path d="M439.153 290.043C430.952 290.487 419.91 297.176 403.368 290.023C386.805 282.85 394.845 302.616 399.217 301.186C403.609 299.755 423.456 301.589 429.723 309.648C435.969 317.728 446.003 299.01 439.153 290.043Z" fill="#544AFF"/>
<path d="M446.164 290.708C455.977 293.146 462.364 301.367 460.45 309.064C460.41 309.212 460.37 309.36 460.329 309.507L459.483 312.953L458.778 312.772C455.191 318.051 447.313 320.589 439.213 318.575C431.133 316.56 425.37 310.616 424.665 304.269L423.96 304.107L424.927 300.219L424.988 300.057C426.982 292.461 436.432 288.27 446.164 290.708Z" fill="#544AFF"/>
<path d="M445.318 294.114C455.131 296.552 461.518 304.772 459.604 312.469C457.69 320.166 448.179 324.418 438.367 321.98C428.574 319.542 422.167 311.321 424.101 303.624C426.015 295.927 435.506 291.655 445.318 294.114Z" fill="#9696FF"/>
<path d="M412.515 323.209L425.25 300.743L459.947 309.628L460.652 335.419L412.515 323.209Z" fill="#9696FF"/>
<path d="M440.301 314.222C453.962 317.627 462.848 329.052 460.188 339.771C460.135 339.973 460.081 340.174 460.027 340.376L458.98 344.587L458.214 344.406C453.398 352.103 442.175 355.871 430.65 353.009C419.124 350.128 410.984 341.524 410.339 332.477L409.574 332.296L410.763 327.46C413.442 316.741 426.66 310.817 440.301 314.222Z" fill="#9696FF"/>
<path d="M439.273 318.393C452.914 321.798 461.82 333.223 459.141 343.942C456.481 354.641 443.243 360.565 429.602 357.18C415.961 353.775 407.075 342.33 409.735 331.631C412.394 320.912 425.632 314.988 439.273 318.393Z" fill="#544AFF"/>
<path d="M437.803 324.297C447.958 326.835 454.668 334.915 452.814 342.37C450.96 349.806 441.228 353.795 431.073 351.256C420.938 348.738 414.208 340.658 416.062 333.203C417.915 325.767 427.647 321.778 437.803 324.297Z" fill="#00FFBE"/>
<path d="M397.283 286.195C402.541 287.504 405.987 291.937 404.959 296.068C404.933 296.148 404.906 296.229 404.879 296.31L404.435 298.163L404.053 298.063C402.118 300.904 397.887 302.274 393.535 301.186C389.203 300.098 386.1 296.914 385.717 293.509L385.334 293.408L385.858 291.313L385.878 291.232C386.966 287.142 392.044 284.905 397.283 286.195Z" fill="#544AFF" stroke="#544AFF" stroke-width="0.4" stroke-miterlimit="22.9256"/>
<path d="M396.819 288.028C402.098 289.338 405.524 293.771 404.496 297.901C403.469 302.032 398.351 304.329 393.092 303.019C387.813 301.709 384.387 297.276 385.415 293.146C386.442 289.015 391.54 286.718 396.819 288.028Z" fill="#9696FF"/>
<path d="M396.436 289.539C400.829 290.647 403.71 294.194 402.904 297.498C402.078 300.803 397.847 302.596 393.454 301.508C389.082 300.4 386.18 296.853 387.007 293.549C387.833 290.244 392.044 288.451 396.436 289.539Z" fill="#00FFBE"/>
<path d="M330.891 275.898C332.301 277.148 332.704 278.981 331.778 280.009C330.891 281.037 329.017 280.855 327.607 279.626C326.196 278.377 325.793 276.543 326.7 275.516C327.627 274.488 329.481 274.669 330.891 275.898Z" fill="#E6E6E6"/>
<path d="M296.255 320.267L291.177 315.774L326.7 275.516L331.778 280.009L296.255 320.267Z" fill="#544AFF"/>
<path d="M296.738 314.585C299.337 316.862 300.063 320.247 298.39 322.141C296.718 324.035 293.273 323.733 290.693 321.456C288.114 319.159 287.369 315.794 289.041 313.9C290.714 312.006 294.159 312.308 296.738 314.585Z" fill="#9696FF"/>
<path d="M277.234 346.119L267.885 337.857L289.041 313.9L298.39 322.141L277.234 346.119Z" fill="#9696FF"/>
<path d="M275.602 338.562C278.181 340.839 278.906 344.224 277.254 346.118C275.581 348.012 272.136 347.69 269.537 345.413C266.958 343.136 266.232 339.751 267.884 337.857C269.557 335.963 273.002 336.286 275.602 338.562Z" fill="#544AFF"/>
<path d="M332.281 274.327C334.86 276.604 335.606 279.989 333.934 281.883C332.261 283.777 328.795 283.475 326.216 281.198C323.637 278.921 322.892 275.536 324.564 273.642C326.237 271.748 329.702 272.05 332.281 274.327Z" fill="#544AFF"/>
</svg>
