<svg width="202" height="118" viewBox="0 0 202 118" fill="none" xmlns="http://www.w3.org/2000/svg">
<path d="M91.334 0.765788C102.275 3.50608 109.428 12.6739 107.292 21.2776C105.136 29.8813 94.5378 34.6365 83.5766 31.8962C72.6155 29.1761 65.4826 19.9881 67.6184 11.4046C69.7542 2.80085 80.3728 -1.95435 91.334 0.765788Z" fill="#544AFF"/>
<path d="M97.0163 6.40771C104.048 10.6592 110.657 21.7412 128.63 23.192C146.624 24.6225 130.242 38.324 127.059 34.9994C123.855 31.6748 105.459 23.9778 96.1499 28.1688C86.8208 32.38 86.7603 11.1428 97.0163 6.40771Z" fill="#544AFF"/>
<path d="M177.754 26.5366C169.553 26.9799 158.532 33.6694 141.969 26.5165C125.427 19.3434 133.446 39.1097 137.839 37.6791C142.211 36.2485 162.078 38.0619 168.324 46.1418C174.591 54.2216 184.625 35.503 177.754 26.5366Z" fill="#544AFF"/>
<path d="M135.884 22.6881C141.143 23.9978 144.589 28.4307 143.561 32.5613C143.534 32.6419 143.514 32.7225 143.501 32.8031L143.037 34.6568L142.654 34.556C140.74 37.3971 136.489 38.7672 132.157 37.6791C127.804 36.5911 124.701 33.4075 124.318 30.0023L123.956 29.9016L124.48 27.8061L124.5 27.7254C125.568 23.6352 130.645 21.3986 135.884 22.6881Z" fill="#544AFF"/>
<path d="M135.421 24.5214C140.7 25.8311 144.145 30.2639 143.098 34.3945C142.07 38.5251 136.972 40.8221 131.693 39.5124C126.414 38.2027 122.989 33.7699 124.016 29.6393C125.044 25.5087 130.162 23.2117 135.421 24.5214Z" fill="#9696FF"/>
<path d="M90.4276 4.37261C101.389 7.09275 108.542 16.2808 106.386 24.8845C104.25 33.468 93.6314 38.2434 82.6702 35.5031C71.7292 32.783 64.5763 23.595 66.7121 14.9913C68.8681 6.40772 79.4866 1.65247 90.4276 4.37261Z" fill="#9696FF"/>
<path d="M66.4499 16.3613L63.7902 35.5837L99.293 44.4291L105.983 26.1941L66.4499 16.3613Z" fill="#9696FF"/>
<path d="M124.218 28.8538L143.299 33.609L137.657 56.2366L118.576 51.4813L124.218 28.8538Z" fill="#9696FF"/>
<path d="M91.4149 28.9143C98.4469 33.1658 105.056 44.2479 123.029 45.6986C141.002 47.1292 124.641 60.8306 121.437 57.506C118.253 54.1814 99.8573 46.4844 90.5483 50.6755C81.2193 54.8866 81.1388 33.6494 91.4149 28.9143Z" fill="#544AFF"/>
<path d="M84.9872 26.2345C94.7998 28.6726 101.187 36.8935 99.2729 44.5905C99.2326 44.7517 99.1923 44.9061 99.152 45.0539L98.2856 48.4792L97.6004 48.318C94.0139 53.577 86.1356 56.1359 78.0357 54.121C69.9558 52.1061 64.1931 46.1621 63.4879 39.8151L62.7827 39.6337L63.7498 35.7449L63.7902 35.5838C65.8051 27.9875 75.2551 23.8166 84.9872 26.2345Z" fill="#544AFF"/>
<path d="M84.1409 29.6396C93.9536 32.0978 100.341 40.2985 98.4267 47.9955C96.5126 55.7126 87.0021 59.9641 77.1894 57.5261C67.3969 55.0679 60.9895 46.847 62.9037 39.1501C64.8179 31.4531 74.3282 27.2016 84.1409 29.6396Z" fill="#9696FF"/>
<path d="M51.318 58.7551L64.0725 36.2686L98.7693 45.1544L99.4746 70.9655L51.318 58.7551Z" fill="#9696FF"/>
<path d="M79.1239 49.7686C92.7649 53.1536 101.671 64.5984 99.0111 75.2976C98.9574 75.5125 98.897 75.7207 98.8299 75.9222L97.7821 80.1334L97.0164 79.9521C92.2007 87.6289 80.9777 91.417 69.4725 88.5356C57.9471 85.6744 49.8068 77.0707 49.1621 68.0237L48.3762 67.8223L49.5852 62.9864C52.2651 52.2872 65.4829 46.3633 79.1239 49.7686Z" fill="#9696FF"/>
<path d="M78.0963 53.9397C91.7373 57.3248 100.623 68.7695 97.9635 79.4687C95.3038 90.1881 82.0657 96.1119 68.4247 92.7067C54.7837 89.3217 45.8778 77.8769 48.5576 67.1576C51.2173 56.4583 64.4351 50.5345 78.0963 53.9397Z" fill="#544AFF"/>
<path d="M76.6254 59.8433C86.7605 62.362 93.4903 70.462 91.6366 77.897C89.7829 85.3522 80.0507 89.3417 69.8955 86.8029C59.7404 84.2641 53.0106 76.1843 54.8643 68.7493C56.7181 61.2941 66.4702 57.3045 76.6254 59.8433Z" fill="#00FFBE"/>
<path d="M185.511 24.2192C196.473 26.9594 203.606 36.1475 201.47 44.731C199.334 53.3347 188.715 58.0899 177.754 55.3698C166.813 52.6295 159.66 43.4616 161.796 34.8579C163.952 26.2542 174.55 21.499 185.511 24.2192Z" fill="#544AFF"/>
<path d="M184.625 27.8261C195.566 30.5664 202.719 39.7342 200.583 48.3379C198.427 56.9416 187.809 61.6968 176.868 58.9767C165.906 56.2364 158.753 47.0484 160.909 38.4649C163.045 29.8612 173.664 25.106 184.625 27.8261Z" fill="#9696FF"/>
<path d="M160.647 39.835L157.988 59.0573L193.49 67.9028L200.16 49.6678L160.647 39.835Z" fill="#9696FF"/>
<path d="M172.153 49.0432C163.952 49.4865 152.91 56.176 136.368 49.0231C119.805 41.8499 127.845 61.6163 132.217 60.1857C136.609 58.7551 156.456 60.5887 162.723 68.6483C168.969 76.7282 179.003 58.0096 172.153 49.0432Z" fill="#544AFF"/>
<path d="M179.164 49.7082C188.977 52.1462 195.364 60.3671 193.45 68.0641C193.41 68.2119 193.37 68.3596 193.329 68.5074L192.483 71.9529L191.778 71.7716C188.191 77.0507 180.313 79.5895 172.213 77.5745C164.133 75.5596 158.37 69.6156 157.665 63.2686L156.96 63.1074L157.927 59.2186L157.988 59.0574C159.982 51.4612 169.432 47.2701 179.164 49.7082Z" fill="#544AFF"/>
<path d="M178.318 53.1135C188.131 55.5516 194.518 63.7725 192.604 71.4694C190.69 79.1664 181.179 83.4179 171.367 80.9799C161.574 78.5418 155.167 70.3209 157.101 62.6239C159.015 54.9269 168.506 50.6553 178.318 53.1135Z" fill="#9696FF"/>
<path d="M145.515 82.209L158.25 59.7427L192.947 68.6285L193.652 94.4194L145.515 82.209Z" fill="#9696FF"/>
<path d="M173.301 73.2223C186.962 76.6275 195.848 88.0521 193.188 98.7714C193.135 98.9729 193.081 99.1744 193.027 99.3759L191.98 103.587L191.214 103.406C186.398 111.103 175.175 114.871 163.65 112.009C152.124 109.128 143.984 100.524 143.339 91.4774L142.574 91.2961L143.763 86.4603C146.442 75.7409 159.66 69.8171 173.301 73.2223Z" fill="#9696FF"/>
<path d="M172.273 77.3929C185.914 80.7981 194.82 92.2227 192.141 102.942C189.481 113.641 176.243 119.565 162.602 116.18C148.961 112.775 140.075 101.33 142.735 90.6309C145.394 79.9115 158.632 73.9877 172.273 77.3929Z" fill="#544AFF"/>
<path d="M170.803 83.2966C180.958 85.8354 187.668 93.9153 185.814 101.37C183.96 108.806 174.228 112.795 164.073 110.256C153.938 107.738 147.208 99.6577 149.062 92.2025C150.915 84.7675 160.647 80.778 170.803 83.2966Z" fill="#00FFBE"/>
<path d="M130.283 45.1947C135.541 46.5044 138.987 50.9372 137.959 55.0678C137.933 55.1484 137.906 55.229 137.879 55.3096L137.435 57.1634L137.053 57.0626C135.118 59.9036 130.887 61.2738 126.535 60.1857C122.203 59.0977 119.1 55.9141 118.717 52.5089L118.334 52.4081L118.858 50.3126L118.878 50.232C119.966 46.1417 125.044 43.9052 130.283 45.1947Z" fill="#544AFF" stroke="#544AFF" stroke-width="0.4" stroke-miterlimit="22.9256"/>
<path d="M129.819 47.028C135.098 48.3377 138.524 52.7705 137.496 56.9011C136.469 61.0317 131.351 63.3287 126.092 62.019C120.813 60.7093 117.387 56.2765 118.415 52.1459C119.442 48.0153 124.54 45.7183 129.819 47.028Z" fill="#9696FF"/>
<path d="M129.436 48.5393C133.829 49.6475 136.71 53.1937 135.904 56.4981C135.078 59.8026 130.847 61.5959 126.454 60.5079C122.082 59.3997 119.18 55.8534 120.007 52.5489C120.833 49.2445 125.044 47.4512 129.436 48.5393Z" fill="#00FFBE"/>
<path d="M63.891 34.8985C65.3015 36.1477 65.7045 37.9813 64.7776 39.0089C63.891 40.0365 62.0171 39.8552 60.6067 38.6261C59.1963 37.3769 58.7932 35.5433 59.7 34.5157C60.6268 33.4881 62.4806 33.6694 63.891 34.8985Z" fill="#E6E6E6"/>
<path d="M29.2548 79.2672L24.1771 74.7739L59.7001 34.5159L64.7778 39.0091L29.2548 79.2672Z" fill="#544AFF"/>
<path d="M29.7382 73.585C32.3374 75.8618 33.0628 79.2469 31.3904 81.1409C29.7181 83.0349 26.2725 82.7327 23.6934 80.4559C21.1143 78.1588 20.3688 74.7939 22.0412 72.8999C23.7136 71.0059 27.1591 71.3081 29.7382 73.585Z" fill="#9696FF"/>
<path d="M10.2338 105.119L0.884521 96.8575L22.0412 72.9001L31.3904 81.1412L10.2338 105.119Z" fill="#9696FF"/>
<path d="M8.60163 97.5624C11.1807 99.8393 11.9061 103.224 10.2539 105.118C8.5815 107.012 5.13595 106.69 2.53671 104.413C-0.0423873 102.136 -0.767773 98.7512 0.88446 96.8572C2.55684 94.9632 6.00239 95.2856 8.60163 97.5624Z" fill="#544AFF"/>
<path d="M65.2813 33.3269C67.8604 35.6038 68.6059 38.9888 66.9336 40.8829C65.2612 42.7769 61.7955 42.4747 59.2164 40.1978C56.6373 37.9209 55.8918 34.5359 57.5641 32.6418C59.2365 30.7478 62.7022 31.0501 65.2813 33.3269Z" fill="#544AFF"/>
</svg>
