<svg width="172" height="336" viewBox="0 0 172 336" fill="none" xmlns="http://www.w3.org/2000/svg">
<rect x="7.27428" y="3.71153" width="157.842" height="328.577" rx="18.1674" fill="#FAFAF9" stroke="#9696FF" stroke-width="1.17209"/>
<rect x="4.14879" y="0.586046" width="164.093" height="334.828" rx="19.7302" stroke="#9696FF" stroke-width="1.17209"/>
<path d="M4.14844 68.5676V85.3674H3.5625C2.37597 85.3673 1.41423 84.4055 1.41406 83.219L1.41406 70.7161C1.41422 69.5295 2.37596 68.5678 3.5625 68.5676H4.14844Z" stroke="#9696FF" stroke-width="1.17209"/>
<path d="M4.14844 90.4465V107.246H3.5625C2.37597 107.246 1.41423 106.284 1.41406 105.098L1.41406 92.595C1.41422 91.4084 2.37596 90.4467 3.5625 90.4465H4.14844Z" stroke="#9696FF" stroke-width="1.17209"/>
<path d="M4.14844 112.326V129.125H3.5625C2.37597 129.125 1.41423 128.164 1.41406 126.977L1.41406 114.474C1.41422 113.288 2.37596 112.326 3.5625 112.326H4.14844Z" stroke="#9696FF" stroke-width="1.17209"/>
<path d="M168.242 85.7583V111.935H168.828C170.015 111.935 170.977 110.972 170.977 109.786V87.9067C170.976 86.7202 170.015 85.7585 168.828 85.7583H168.242Z" stroke="#9696FF" stroke-width="1.17209"/>
<mask id="path-7-inside-1_2676_44712" fill="white">
<path d="M143.823 9.37671C152.454 9.37675 159.451 16.3736 159.451 25.0046V310.995C159.451 319.626 152.454 326.623 143.823 326.623H28.5674C19.9363 326.623 12.9395 319.626 12.9395 310.995L12.9395 25.0046C12.9395 16.3736 19.9363 9.37671 28.5674 9.37671H49.665V12.5027C49.6652 17.6812 53.8635 21.8787 59.042 21.8787H113.544C118.722 21.8787 122.921 17.6812 122.921 12.5027V9.37671H143.823Z"/>
</mask>
<path d="M143.823 9.37671V8.20462V9.37671ZM143.823 326.623V327.795V326.623ZM49.665 9.37671H50.8371V8.20462H49.665V9.37671ZM49.665 12.5027H48.4929V12.5027L49.665 12.5027ZM122.921 12.5027L124.093 12.5027V12.5027H122.921ZM122.921 9.37671V8.20462H121.749V9.37671H122.921ZM143.823 9.37671V10.5488C151.807 10.5488 158.279 17.0209 158.279 25.0046H159.451H160.623C160.623 15.7263 153.102 8.20466 143.823 8.20462V9.37671ZM159.451 25.0046H158.279V310.995H159.451H160.623V25.0046H159.451ZM159.451 310.995H158.279C158.279 318.979 151.807 325.451 143.823 325.451V326.623V327.795C153.102 327.795 160.623 320.273 160.623 310.995H159.451ZM143.823 326.623V325.451H28.5674V326.623V327.795H143.823V326.623ZM28.5674 326.623V325.451C20.5837 325.451 14.1115 318.979 14.1115 310.995H12.9395H11.7674C11.7674 320.273 19.289 327.795 28.5674 327.795V326.623ZM12.9395 310.995H14.1115L14.1115 25.0046H12.9395H11.7674L11.7674 310.995H12.9395ZM12.9395 25.0046H14.1115C14.1115 17.0209 20.5837 10.5488 28.5674 10.5488V9.37671V8.20462C19.289 8.20462 11.7674 15.7263 11.7674 25.0046H12.9395ZM28.5674 9.37671V10.5488H49.665V9.37671V8.20462H28.5674V9.37671ZM49.665 9.37671H48.4929V12.5027H49.665H50.8371V9.37671H49.665ZM49.665 12.5027L48.4929 12.5027C48.4932 18.3286 53.2163 23.0508 59.042 23.0508V21.8787V20.7066C54.5107 20.7066 50.8373 17.0337 50.8371 12.5026L49.665 12.5027ZM59.042 21.8787V23.0508H113.544V21.8787V20.7066H59.042V21.8787ZM113.544 21.8787V23.0508C119.37 23.0508 124.093 18.3286 124.093 12.5027L122.921 12.5027L121.749 12.5026C121.749 17.0337 118.075 20.7066 113.544 20.7066V21.8787ZM122.921 12.5027H124.093V9.37671H122.921H121.749V12.5027H122.921ZM122.921 9.37671V10.5488L143.823 10.5488V9.37671V8.20462L122.921 8.20462V9.37671Z" fill="#9696FF" mask="url(#path-7-inside-1_2676_44712)"/>
<rect x="74.4745" y="13.0885" width="23.8326" height="1.95349" rx="0.976744" stroke="#9696FF" stroke-width="1.17209"/>
<circle cx="106.707" cy="14.0652" r="0.976744" stroke="#9696FF" stroke-width="1.17209"/>
</svg>
