<svg width="40" height="40" viewBox="0 0 40 40" fill="none" xmlns="http://www.w3.org/2000/svg">
<path d="M35 13.3333V26.6667C35 28.8768 34.122 30.9964 32.5592 32.5592C30.9964 34.122 28.8768 35 26.6667 35H13.3333C11.1232 35 9.00358 34.122 7.44078 32.5592C5.87797 30.9964 5 28.8768 5 26.6667V13.3333C5 11.1232 5.87797 9.00358 7.44078 7.44078C9.00358 5.87797 11.1232 5 13.3333 5H26.6667C28.8768 5 30.9964 5.87797 32.5592 7.44078C34.122 9.00358 35 11.1232 35 13.3333Z" stroke="white" stroke-width="2.5" stroke-linecap="round" stroke-linejoin="round"/>
<path d="M16.6666 20C15.6777 20 14.711 20.2932 13.8888 20.8427C13.0665 21.3921 12.4257 22.173 12.0472 23.0866C11.6688 24.0002 11.5698 25.0055 11.7627 25.9755C11.9556 26.9454 12.4318 27.8363 13.1311 28.5355C13.8304 29.2348 14.7213 29.711 15.6912 29.9039C16.6611 30.0969 17.6664 29.9978 18.58 29.6194C19.4937 29.241 20.2746 28.6001 20.824 27.7779C21.3734 26.9556 21.6666 25.9889 21.6666 25V10C22.2216 11.6667 24.3333 15 28.3333 15" stroke="white" stroke-width="2.5" stroke-linecap="round" stroke-linejoin="round"/>
</svg>
