<svg width="199" height="187" viewBox="0 0 199 187" fill="none" xmlns="http://www.w3.org/2000/svg">
<g opacity="0.2">
<path d="M86.9161 85.7592C86.9012 90.0908 89.9491 95.361 93.7179 97.5395L191.927 154.238C195.696 156.416 198.763 154.672 198.773 150.34L198.98 77.6728L199 70.59C199.01 66.2583 195.967 60.9825 192.198 58.8096L93.9891 2.10636C90.2202 -0.0665234 87.1533 1.67701 87.1434 6.00865L87.1237 13.0965L86.9161 85.7592Z" fill="#BFBEED"/>
</g>
<g opacity="0.2">
<path d="M79.2294 93.866C79.2146 98.1977 82.2624 103.468 86.0313 105.646L184.24 162.345C188.008 164.523 191.075 162.78 191.085 158.447L191.293 85.7797L191.313 78.6968C191.323 74.3651 188.28 69.0901 184.511 66.9165L86.3024 10.2132C82.5336 8.04029 79.4667 9.78312 79.4568 14.1155L79.437 21.2033L79.2294 93.866Z" fill="#BFBEED"/>
</g>
<path d="M75.9676 15.3119L74.2523 16.309C75.4754 15.5986 77.1688 15.6981 79.0373 16.7772L80.7526 15.78C78.8841 14.7017 77.19 14.6014 75.9676 15.3119Z" fill="#F4F4FA"/>
<mask id="mask0_2676_85146" style="mask-type:luminance" maskUnits="userSpaceOnUse" x="74" y="14" width="7" height="3">
<path d="M75.9676 15.3119L74.2523 16.309C75.4754 15.5986 77.1688 15.6981 79.0373 16.7772L80.7526 15.78C78.8841 14.7017 77.19 14.6014 75.9676 15.3119Z" fill="white"/>
</mask>
<g mask="url(#mask0_2676_85146)">
<path d="M79.0373 16.7771L80.7526 15.78C78.8841 14.701 77.19 14.6014 75.9676 15.3118L74.2523 16.3089C75.4747 15.5985 77.1681 15.6981 79.0373 16.7771Z" fill="#544AFF"/>
</g>
<path d="M180.342 167.171L182.058 166.175C183.264 165.474 184.012 163.983 184.018 161.864L182.303 162.861C182.296 164.98 181.548 166.47 180.342 167.171Z" fill="#F4F4FA"/>
<mask id="mask1_2676_85146" style="mask-type:luminance" maskUnits="userSpaceOnUse" x="180" y="161" width="5" height="7">
<path d="M180.342 167.171L182.058 166.175C183.264 165.474 184.012 163.983 184.018 161.864L182.303 162.861C182.296 164.98 181.548 166.47 180.342 167.171Z" fill="white"/>
</mask>
<g mask="url(#mask1_2676_85146)">
<path d="M180.342 167.171L182.058 166.175C183.264 165.474 184.012 163.983 184.018 161.864L182.303 162.861C182.296 164.98 181.548 166.47 180.342 167.171Z" fill="#D3D3F5"/>
</g>
<path d="M182.526 84.2664L184.241 83.27L184.221 90.2569L182.506 91.2469L182.526 84.2664Z" fill="#544AFF"/>
<path d="M184.221 90.2568L184.018 161.864L182.303 162.861L182.506 91.2469L184.221 90.2568Z" fill="#D3D3F5"/>
<path d="M175.822 72.6554L177.537 71.659L80.7525 15.7798L79.0372 16.7769L175.822 72.6554Z" fill="#544AFF"/>
<path d="M182.526 84.2664L184.241 83.2693C184.253 79.0019 181.251 73.8024 177.537 71.6584L175.822 72.6556C179.536 74.8002 182.538 79.999 182.526 84.2664Z" fill="#F4F4FA"/>
<mask id="mask2_2676_85146" style="mask-type:luminance" maskUnits="userSpaceOnUse" x="175" y="71" width="10" height="14">
<path d="M182.526 84.2664L184.241 83.2693C184.253 79.0019 181.251 73.8024 177.537 71.6584L175.822 72.6556C179.536 74.8002 182.538 79.999 182.526 84.2664Z" fill="white"/>
</mask>
<g mask="url(#mask2_2676_85146)">
<path d="M182.526 84.2664L184.241 83.2693C184.253 79.0019 181.251 73.8024 177.537 71.6584L175.822 72.6556C179.536 74.8002 182.538 79.999 182.526 84.2664Z" fill="#544AFF"/>
</g>
<path d="M72.0682 99.2154C72.0533 103.484 75.0567 108.678 78.7711 110.825L175.555 166.701C179.27 168.848 182.292 167.13 182.302 162.861L182.506 91.2477L182.526 84.2672C182.536 79.9984 179.537 74.7996 175.823 72.6578L79.0388 16.7764C75.3243 14.6346 72.3019 16.3527 72.292 20.6222L72.2723 27.607L72.0682 99.2154Z" fill="#F4F4FA"/>
<path d="M72.2722 27.607L182.505 91.247L182.525 84.2665C182.535 79.9977 179.537 74.7989 175.822 72.6571L79.0387 16.7764C75.3243 14.6346 72.3019 16.3527 72.292 20.6222L72.2722 27.607Z" fill="#9696FF"/>
<path d="M168.507 76.1835C168.507 77.0973 167.865 77.4681 167.073 77.0112C166.282 76.5543 165.64 75.4428 165.64 74.5283C165.64 73.6138 166.282 73.2437 167.073 73.7006C167.865 74.1575 168.507 75.269 168.507 76.1835Z" fill="#00FFBE"/>
<path d="M173.022 78.7908C173.022 79.7046 172.38 80.0753 171.589 79.6185C170.797 79.1616 170.155 78.05 170.155 77.1356C170.155 76.2218 170.797 75.851 171.589 76.3079C172.38 76.7648 173.022 77.8763 173.022 78.7908Z" fill="#00FFBE"/>
<path d="M177.537 81.3972C177.537 82.3109 176.896 82.6817 176.104 82.2248C175.312 81.7672 174.67 80.6564 174.67 79.7419C174.67 78.8274 175.312 78.4574 176.104 78.9143C176.896 79.3719 177.537 80.4834 177.537 81.3972Z" fill="#00FFBE"/>
<path d="M30.3738 64.9151L56.7527 49.5856C57.3968 49.2113 58.2894 49.2643 59.2759 49.8334L32.8969 65.163C31.9111 64.5938 31.0185 64.5408 30.3738 64.9151Z" fill="#9696FF"/>
<mask id="mask3_2676_85146" style="mask-type:luminance" maskUnits="userSpaceOnUse" x="30" y="49" width="30" height="17">
<path d="M30.3738 64.9151L56.7527 49.5856C57.3968 49.2113 58.2894 49.2643 59.2759 49.8334L32.8969 65.163C31.9111 64.5938 31.0185 64.5408 30.3738 64.9151Z" fill="white"/>
</mask>
<g mask="url(#mask3_2676_85146)">
<path d="M30.3738 64.9152L56.7527 49.5857C57.3869 49.217 58.2611 49.2629 59.2279 49.8067L32.8489 65.1362C31.8821 64.5925 31.0079 64.5466 30.3738 64.9152Z" fill="#9696FF"/>
<path d="M32.8496 65.1362L59.2286 49.8066C59.2441 49.8158 59.2603 49.8243 59.2759 49.8335L32.8969 65.163C32.8814 65.1545 32.8651 65.1453 32.8496 65.1362Z" fill="#9696FF"/>
</g>
<path d="M131.756 169.331L105.377 184.66C110.287 181.807 113.342 175.76 113.366 167.189L139.745 151.859C139.721 160.43 136.666 166.478 131.756 169.331Z" fill="#544AFF"/>
<mask id="mask4_2676_85146" style="mask-type:luminance" maskUnits="userSpaceOnUse" x="105" y="151" width="35" height="34">
<path d="M131.756 169.331L105.377 184.66C110.287 181.807 113.342 175.76 113.366 167.189L139.745 151.859C139.721 160.43 136.666 166.478 131.756 169.331Z" fill="white"/>
</mask>
<g mask="url(#mask4_2676_85146)">
<path d="M113.366 167.19L139.745 151.86C139.721 160.431 136.666 166.479 131.756 169.331L105.377 184.661C110.287 181.807 113.342 175.76 113.366 167.19Z" fill="#544AFF"/>
</g>
<path d="M113.512 115.786L139.891 100.457L139.745 151.859L113.366 167.19L113.512 115.786Z" fill="#544AFF"/>
<path d="M32.8969 65.163L59.2758 49.8335L136.358 94.337L109.979 109.667L32.8969 65.163Z" fill="#00FFBE"/>
<path d="M109.979 109.666L136.358 94.3369C138.317 95.4682 139.897 98.2053 139.891 100.457L113.512 115.786C113.519 113.534 111.938 110.798 109.979 109.666Z" fill="#9696FF"/>
<mask id="mask5_2676_85146" style="mask-type:luminance" maskUnits="userSpaceOnUse" x="109" y="94" width="31" height="22">
<path d="M109.979 109.666L136.358 94.3369C138.317 95.4682 139.897 98.2053 139.891 100.457L113.512 115.786C113.519 113.534 111.938 110.798 109.979 109.666Z" fill="white"/>
</mask>
<g mask="url(#mask5_2676_85146)">
<path d="M109.979 109.666L136.358 94.3369C136.781 94.582 137.187 94.9011 137.563 95.2747L111.184 110.604C110.809 110.231 110.402 109.911 109.979 109.666Z" fill="#9696FF"/>
<path d="M111.184 110.604L137.563 95.2747C138.926 96.6291 139.896 98.6918 139.891 100.457L113.512 115.786C113.517 114.021 112.548 111.959 111.184 110.604Z" fill="#9696FF"/>
</g>
<path d="M109.979 109.667C111.938 110.798 113.518 113.534 113.512 115.786L113.366 167.19C113.318 184.443 100.986 191.47 85.9719 182.801L56.4117 165.734C41.3964 157.065 29.1458 135.846 29.1945 118.593L29.3399 67.1898C29.3463 64.9378 30.9366 64.0318 32.8962 65.1631L109.979 109.667Z" fill="#9696FF"/>
<path d="M57.0782 64.4225C53.7691 66.3334 48.3542 66.3334 45.0451 64.4225C41.736 62.5116 41.736 59.3854 45.0451 57.4752C48.3542 55.5643 53.7691 55.5643 57.0782 57.4752C60.3873 59.3861 60.3873 62.5123 57.0782 64.4225Z" fill="#544AFF"/>
<path d="M121.658 101.517C118.349 103.428 112.934 103.428 109.625 101.517C106.316 99.6065 106.316 96.4803 109.625 94.5694C112.934 92.6592 118.349 92.6592 121.658 94.5694C124.967 96.4803 124.967 99.6065 121.658 101.517Z" fill="#544AFF"/>
<path d="M43.2309 27.7657L43.3545 60.5207C43.3587 61.6597 44.1066 62.7931 45.6008 63.6582C48.5893 65.3862 53.4181 65.3678 56.3939 63.6179C57.886 62.7409 58.6254 61.5905 58.6169 60.448L58.4933 27.7085C58.4722 21.9963 60.0752 17.777 62.8956 16.1351C65.7153 14.4933 70.1755 15.1804 75.1356 18.0206L83.5645 22.8423C96.7691 30.4004 107.97 49.6386 108.027 64.853L108.15 97.608C108.155 98.747 108.907 99.884 110.4 100.746C112.315 101.853 114.991 102.243 117.449 101.918C118.819 101.737 120.125 101.332 121.19 100.705C121.593 100.467 121.941 100.214 122.23 99.9447C123.027 99.2103 123.42 98.3735 123.412 97.5381L123.293 64.7951C123.255 54.8417 119.916 43.6567 113.889 33.3099C107.867 22.9666 99.7873 14.542 91.1459 9.59739L82.7171 4.77143C77.954 2.04703 73.2113 0.470152 68.6248 0.0874082C63.7578 -0.314402 59.1204 0.674237 55.2153 2.9474C51.3102 5.22126 48.1656 8.76623 46.1156 13.1953C44.1793 17.3766 43.2104 22.2774 43.2309 27.7657Z" fill="#DADAF9"/>
<path d="M58.6841 17.9338C59.5435 17.4331 60.5569 17.1521 61.6881 17.0786C59.6261 19.1173 58.4758 22.8741 58.4934 27.71L58.617 60.4487C58.6269 61.5927 57.8861 62.7395 56.394 63.618C55.7987 63.9676 55.1271 64.2458 54.4132 64.4569L54.2818 29.5065C54.2599 23.7943 55.8651 19.5756 58.6841 17.9338Z" fill="#BFBEED"/>
<path d="M54.1908 4.88232C56.8552 4.12884 59.7116 3.86261 62.6549 4.10765C67.245 4.48616 71.9841 6.06374 76.7515 8.78815L85.1803 13.6141C93.8217 18.5587 101.897 26.9833 107.923 37.3308C113.95 47.6741 117.286 58.8584 117.323 68.8168L117.447 101.919C118.818 101.738 120.124 101.334 121.189 100.706C121.592 100.469 121.939 100.215 122.229 99.9461L122.105 66.8197C122.067 56.862 118.728 45.6813 112.705 35.3338C106.677 24.987 98.599 16.5659 89.9576 11.6213L81.5287 6.79604C76.7656 4.0674 72.0223 2.49406 67.4357 2.11131C62.6338 1.71303 58.0599 2.67413 54.1908 4.88232Z" fill="#F4F4FA"/>
<path d="M61.1889 120.372C61.172 115.989 64.2424 114.201 68.0472 116.378C71.8514 118.555 74.9486 123.874 74.9649 128.256C74.9755 131.145 73.6415 132.896 71.6445 133.139L71.6911 145.616L64.6068 141.561L64.5602 129.085C62.5525 126.55 61.1995 123.261 61.1889 120.372Z" fill="#544AFF"/>
<path d="M63.5792 93.8253L64.9668 93.0195L64.9258 110.805L63.5382 111.611L63.5792 93.8253Z" fill="#E5E3E8"/>
<path d="M0.0402832 57.1412L1.4279 56.3347L64.9669 93.0195L63.5793 93.8252L0.0402832 57.1412Z" fill="#E5E3E8"/>
<path d="M63.5793 93.8252L63.5383 111.611L0 74.9267L0.0402565 57.1411L63.5793 93.8252Z" fill="#F9F7FC"/>
<path d="M4.08374 66.7783L6.70504 67.8778L6.79967 69.9793L4.08374 68.3029V66.7783ZM5.46077 69.3155L7.17676 70.8288L6.25239 73.2355L4.98834 72.0484L5.46077 69.3155ZM7.77983 66.5607L8.93018 69.9687L7.26998 69.7505L6.51649 66.3101L7.77983 66.5607ZM7.83632 71.0795L9.98661 74.2587L9.19429 75.0207L6.87452 72.244L7.83632 71.0795ZM10.1377 69.9249L10.911 71.6127L9.00574 72.6253L7.89352 70.3931L10.1377 69.9249Z" fill="#00FFBE"/>
<path d="M11.9675 71.3303L14.5888 72.4298L14.6835 74.532L11.9675 72.8549V71.3303ZM13.3446 73.8675L15.0605 75.3808L14.1369 77.7875L12.8728 76.6004L13.3446 73.8675ZM15.6643 71.1128L16.8147 74.5207L15.1552 74.3025L14.401 70.8621L15.6643 71.1128ZM15.7208 75.6308L17.8704 78.81L17.0781 79.5727L14.7583 76.796L15.7208 75.6308ZM18.0215 74.4769L18.7948 76.1647L16.8895 77.1773L15.7773 74.9451L18.0215 74.4769Z" fill="#00FFBE"/>
<path d="M19.8518 75.8822L22.4731 76.9817L22.567 79.0826L19.8518 77.4061V75.8822ZM21.2281 78.4188L22.9441 79.9321L22.0198 82.3387L20.7564 81.1517L21.2281 78.4188ZM23.5479 75.664L24.6983 79.072L23.0387 78.8538L22.2846 75.4133L23.5479 75.664ZM23.6044 80.1828L25.754 83.3627L24.9616 84.1246L22.6419 81.3487L23.6044 80.1828ZM25.9058 79.0289L26.6791 80.7167L24.7738 81.7293L23.6609 79.4971L25.9058 79.0289Z" fill="#00FFBE"/>
<path d="M27.7362 80.434L30.3575 81.5335L30.4521 83.635L27.7362 81.9586V80.434ZM29.1125 82.9705L30.8292 84.4839L29.9049 86.8905L28.6408 85.7034L29.1125 82.9705ZM31.4323 80.2158L32.5834 83.6238L30.9238 83.4055L30.1697 79.9651L31.4323 80.2158ZM31.4888 84.7346L33.6384 87.9137L32.846 88.6764L30.5263 85.8997L31.4888 84.7346ZM33.7902 83.58L34.5627 85.2677L32.6582 86.2811L31.546 84.0489L33.7902 83.58Z" fill="#00FFBE"/>
<path d="M35.6199 84.9853L38.2405 86.0848L38.3351 88.1856L35.6199 86.5092V84.9853ZM36.9962 87.5225L38.7129 89.0358L37.7885 91.4425L36.5252 90.2561L36.9962 87.5225ZM39.316 84.7671L40.4663 88.175L38.8068 87.9568L38.0526 84.5164L39.316 84.7671ZM39.3725 89.2858L41.522 92.465L40.7297 93.2277L38.4099 90.451L39.3725 89.2858ZM41.6739 88.132L42.4471 89.8197L40.5419 90.8323L39.4296 88.6001L41.6739 88.132Z" fill="#00FFBE"/>
<path d="M43.5035 89.5373L46.1241 90.6368L46.2188 92.7383L43.5035 91.0619V89.5373ZM44.8806 92.0738L46.5973 93.5871L45.6729 95.9938L44.4096 94.8067L44.8806 92.0738ZM47.1996 89.3191L48.3507 92.727L46.6905 92.5088L45.9363 89.0684L47.1996 89.3191ZM47.2568 93.8378L49.4064 97.0177L48.6141 97.7797L46.2943 95.0037L47.2568 93.8378ZM49.5575 92.684L50.3301 94.3717L48.4248 95.3843L47.3126 93.1521L49.5575 92.684Z" fill="#00FFBE"/>
</svg>
