<svg width="155" height="220" viewBox="0 0 155 220" fill="none" xmlns="http://www.w3.org/2000/svg">
<path d="M145.889 218.256C147.654 220.294 150.737 220.511 152.775 218.745C154.825 216.966 155.043 213.883 153.277 211.846L15.5462 53.1041C10.0728 46.7887 8.87759 40.9893 10.3037 36.9556C10.779 35.6382 11.5532 34.4973 12.5582 33.6281C13.5768 32.7453 14.8128 32.1341 16.1845 31.8625C20.3676 31.0204 25.9497 33.0169 31.4366 39.3324C33.2022 41.3696 36.2853 41.5869 38.3225 39.8213C40.3733 38.0421 40.5906 34.9591 38.8115 32.9219C30.7304 23.5913 21.59 20.8206 14.2695 22.301C11.1593 22.9258 8.40224 24.284 6.14769 26.2397C3.90674 28.1819 2.1683 30.7352 1.10893 33.7096C-1.39008 40.7584 0.0767365 50.1976 8.15779 59.5146L145.889 218.256Z" fill="#544AFF"/>
<path d="M27.6609 67.066L15.5461 53.1041C10.0728 46.7887 8.87755 40.9893 10.3036 36.9556C10.779 35.6382 11.5531 34.4973 12.5582 33.6281C13.5768 32.7453 14.8127 32.1341 16.1845 31.8625C20.3676 31.0204 25.9496 33.0169 31.4366 39.3324C33.2022 41.3696 36.2852 41.5869 38.3225 39.8213C40.3733 38.0421 40.5906 34.9591 38.8114 32.9219C30.7304 23.5913 21.5899 20.8206 14.2695 22.301C11.1593 22.9258 8.4022 24.284 6.14765 26.2397C3.90669 28.1819 2.16826 30.7352 1.10889 33.7096C-1.39012 40.7584 0.0766945 50.1976 8.15774 59.5146L20.2725 73.4765L27.6609 67.066Z" fill="#00FFBE"/>
<path d="M107.738 108.109C108.349 110.405 108.756 126.132 107.874 128.631C107.004 131.062 105.578 130.601 101.137 129.161C96.696 127.721 83.5083 123.497 83.454 118.391C83.3997 113.121 97.8912 107.553 102.088 106.48C106.285 105.407 107.154 105.923 107.738 108.109Z" fill="#00FFBE"/>
<path d="M56.087 107.39C55.408 109.671 54.5659 125.399 55.3808 127.912C56.1821 130.37 57.6218 129.949 62.1037 128.631C66.572 127.314 79.882 123.443 80.0721 118.337C80.2622 113.08 65.9337 107.105 61.7777 105.923C57.6081 104.741 56.7254 105.23 56.087 107.39Z" fill="#00FFBE"/>
<path d="M88.0855 113.053C88.8732 114.276 89.4165 122.425 87.8546 123.117C86.2927 123.824 77.4103 124.285 76.3374 122.941C75.2644 121.583 75.0064 114.262 76.4461 113.339C77.8721 112.415 86.7409 112.252 88.0855 113.053Z" fill="#9696FF"/>
<path d="M86.9173 112.103L77.6275 111.98C76.9892 111.967 76.4595 112.483 76.4459 113.121L76.3101 122.737C76.3101 123.375 76.8262 123.905 77.4646 123.919L86.7544 124.041C87.3927 124.055 87.9224 123.538 87.936 122.9L88.0718 113.284C88.0718 112.646 87.5557 112.116 86.9173 112.103Z" fill="#00FFBE"/>
<path d="M88.642 118.051C89.0902 116.15 100.472 110.391 102.02 112.632C103.582 114.873 90.6656 116.693 92.2275 117.78C93.803 118.853 104.465 119.64 103.568 122.683C102.685 125.738 88.5198 119.206 88.642 118.051Z" fill="#9696FF"/>
<path d="M75.6444 117.861C75.2506 115.96 64.0321 109.889 62.4159 112.089C60.7997 114.275 73.6615 116.462 72.0589 117.494C70.4562 118.54 59.7811 119.015 60.5824 122.098C61.3838 125.168 75.7259 119.029 75.6444 117.861Z" fill="#9696FF"/>
<path d="M115.71 42.2659C126.929 48.9616 138.921 67.4733 129.292 81.8698C119.676 96.2799 97.3208 104.619 66.1239 85.9036C4.7487 49.0839 33.6639 39.2508 72.5344 48.1467C90.5436 52.2619 111.486 39.7533 115.71 42.2659Z" fill="#9696FF"/>
<path d="M112.478 43.9635C122.094 49.7085 132.375 65.5718 124.118 77.931C115.874 90.2767 96.5197 97.6787 69.9677 81.3808C9.78769 44.4388 42.139 41.383 75.4683 49.0022C90.8969 52.5335 108.852 41.804 112.478 43.9635Z" fill="#544AFF"/>
<path d="M40.2784 9.83299C40.2784 9.83299 121.904 9.68359 123.221 9.68359C116.906 21.0378 113.13 45.8378 114.04 68.5055L53.0315 68.6413L49.4867 65.8571C50.03 43.9771 46.3493 20.739 40.2784 9.83299Z" fill="#9696FF"/>
<path d="M81.7156 0C58.6676 0 39.9929 3.93866 39.9929 8.78729C39.9929 13.6359 58.6676 17.5746 81.7156 17.5746C104.764 17.5746 123.438 13.6359 123.438 8.78729C123.438 3.93866 104.764 0 81.7156 0Z" fill="#00FFBE"/>
<path d="M59.931 73.5852C65.676 74.6853 73.3225 75.3508 81.7159 75.3508C99.6165 75.3508 114.122 72.3085 114.122 68.5328C114.122 68.3517 114.09 68.1706 114.027 67.9895C113.959 65.8301 113.972 63.0594 113.959 60.8728C113.959 64.6213 99.5214 67.6636 81.7159 67.6636C64.5624 67.6636 50.5462 64.8386 49.5411 61.2803C49.5275 62.7063 49.5275 64.3361 49.5139 65.8708C52.348 68.1978 55.8203 70.7693 59.931 73.5852Z" fill="#00FFBE"/>
</svg>
