<svg width="90" height="74" viewBox="0 0 90 74" fill="none" xmlns="http://www.w3.org/2000/svg">
<mask id="path-1-inside-1_2667_2832" fill="white">
<path d="M90 0H0V74H90V0Z"/>
</mask>
<path d="M90 74V74.5H89.0217V74V73.5H90V74ZM87.0652 74V74.5H85.1087V74V73.5H87.0652V74ZM83.1522 74V74.5H81.1957V74V73.5H83.1522V74ZM79.2391 74V74.5H77.2826V74V73.5H79.2391V74ZM75.3261 74V74.5H73.3696V74V73.5H75.3261V74ZM71.413 74V74.5H69.4565V74V73.5H71.413V74ZM67.5 74V74.5H65.5435V74V73.5H67.5V74ZM63.587 74V74.5H61.6304V74V73.5H63.587V74ZM59.6739 74V74.5H57.7174V74V73.5H59.6739V74ZM55.7609 74V74.5H53.8043V74V73.5H55.7609V74ZM51.8478 74V74.5H49.8913V74V73.5H51.8478V74ZM47.9348 74V74.5H45.9783V74V73.5H47.9348V74ZM44.0218 74V74.5H42.0652V74V73.5H44.0218V74ZM40.1087 74V74.5H38.1522V74V73.5H40.1087V74ZM36.1957 74V74.5H34.2392V74V73.5H36.1957V74ZM32.2826 74V74.5H30.3261V74V73.5H32.2826V74ZM28.3696 74V74.5H26.4131V74V73.5H28.3696V74ZM24.4565 74V74.5H22.5V74V73.5H24.4565V74ZM20.5435 74V74.5H18.587V74V73.5H20.5435V74ZM16.6305 74V74.5H14.6739V74V73.5H16.6305V74ZM12.7174 74V74.5H10.7609V74V73.5H12.7174V74ZM8.80438 74V74.5H6.84786V74V73.5H8.80438V74ZM4.89134 74V74.5H2.93482V74V73.5H4.89134V74ZM0.978302 74V74.5H0V74V73.5H0.978302V74ZM90 74V75H89.0217V74V73H90V74ZM87.0652 74V75H85.1087V74V73H87.0652V74ZM83.1522 74V75H81.1957V74V73H83.1522V74ZM79.2391 74V75H77.2826V74V73H79.2391V74ZM75.3261 74V75H73.3696V74V73H75.3261V74ZM71.413 74V75H69.4565V74V73H71.413V74ZM67.5 74V75H65.5435V74V73H67.5V74ZM63.587 74V75H61.6304V74V73H63.587V74ZM59.6739 74V75H57.7174V74V73H59.6739V74ZM55.7609 74V75H53.8043V74V73H55.7609V74ZM51.8478 74V75H49.8913V74V73H51.8478V74ZM47.9348 74V75H45.9783V74V73H47.9348V74ZM44.0218 74V75H42.0652V74V73H44.0218V74ZM40.1087 74V75H38.1522V74V73H40.1087V74ZM36.1957 74V75H34.2392V74V73H36.1957V74ZM32.2826 74V75H30.3261V74V73H32.2826V74ZM28.3696 74V75H26.4131V74V73H28.3696V74ZM24.4565 74V75H22.5V74V73H24.4565V74ZM20.5435 74V75H18.587V74V73H20.5435V74ZM16.6305 74V75H14.6739V74V73H16.6305V74ZM12.7174 74V75H10.7609V74V73H12.7174V74ZM8.80438 74V75H6.84786V74V73H8.80438V74ZM4.89134 74V75H2.93482V74V73H4.89134V74ZM0.978302 74V75H0V74V73H0.978302V74Z" fill="#544AFF" mask="url(#path-1-inside-1_2667_2832)"/>
<path fill-rule="evenodd" clip-rule="evenodd" d="M20 22.0001C23.0942 22.0001 26.0617 23.2292 28.2496 25.4172C30.4375 27.6051 31.6667 30.5726 31.6667 33.6667C31.6667 37.2656 29.6389 41.1445 27.0038 44.6067C24.4566 47.9534 21.5338 50.6634 20 51.9945C18.4662 50.6634 15.5434 47.9534 12.9962 44.6067C10.3611 41.1445 8.33333 37.2656 8.33333 33.6667C8.33333 30.5726 9.56249 27.6051 11.7504 25.4172C13.9383 23.2292 16.9058 22.0001 20 22.0001ZM30.6066 23.0601C27.7936 20.2471 23.9782 18.6667 20 18.6667C16.0218 18.6667 12.2064 20.2471 9.3934 23.0601C6.58035 25.8732 5 29.6885 5 33.6667C5 38.3896 7.58804 43.0048 10.3438 46.6255C13.1381 50.297 16.3171 53.2187 17.9091 54.5932C17.9375 54.6177 17.9667 54.6413 17.9967 54.6638C18.5743 55.0981 19.2773 55.333 20 55.333C20.7227 55.333 21.4257 55.0981 22.0033 54.6638C22.0333 54.6413 22.0625 54.6177 22.0909 54.5932C23.6829 53.2187 26.8619 50.297 29.6562 46.6255C32.412 43.0048 35 38.3896 35 33.6667C35 29.6885 33.4196 25.8732 30.6066 23.0601Z" fill="#544AFF"/>
<path fill-rule="evenodd" clip-rule="evenodd" d="M20.0001 30.3333C21.841 30.3333 23.3334 31.8257 23.3334 33.6667C23.3334 35.5076 21.841 37 20.0001 37C18.1591 37 16.6667 35.5076 16.6667 33.6667C16.6667 31.8257 18.1591 30.3333 20.0001 30.3333ZM26.6667 33.6667C26.6667 29.9848 23.682 27 20.0001 27C16.3182 27 13.3334 29.9848 13.3334 33.6667C13.3334 37.3486 16.3182 40.3333 20.0001 40.3333C23.682 40.3333 26.6667 37.3486 26.6667 33.6667Z" fill="#544AFF"/>
</svg>
