<svg width="90" height="74" viewBox="0 0 90 74" fill="none" xmlns="http://www.w3.org/2000/svg">
<mask id="path-1-inside-1_2667_2838" fill="white">
<path d="M0 0H90V74H0V0Z"/>
</mask>
<path d="M0 74V74.5H0.978261V74V73.5H0V74ZM2.93478 74V74.5H4.8913V74V73.5H2.93478V74ZM6.84783 74V74.5H8.80435V74V73.5H6.84783V74ZM10.7609 74V74.5H12.7174V74V73.5H10.7609V74ZM14.6739 74V74.5H16.6304V74V73.5H14.6739V74ZM18.587 74V74.5H20.5435V74V73.5H18.587V74ZM22.5 74V74.5H24.4565V74V73.5H22.5V74ZM26.413 74V74.5H28.3696V74V73.5H26.413V74ZM30.3261 74V74.5H32.2826V74V73.5H30.3261V74ZM34.2391 74V74.5H36.1957V74V73.5H34.2391V74ZM38.1522 74V74.5H40.1087V74V73.5H38.1522V74ZM42.0652 74V74.5H44.0217V74V73.5H42.0652V74ZM45.9782 74V74.5H47.9348V74V73.5H45.9782V74ZM49.8913 74V74.5H51.8478V74V73.5H49.8913V74ZM53.8043 74V74.5H55.7608V74V73.5H53.8043V74ZM57.7174 74V74.5H59.6739V74V73.5H57.7174V74ZM61.6304 74V74.5H63.5869V74V73.5H61.6304V74ZM65.5435 74V74.5H67.5V74V73.5H65.5435V74ZM69.4565 74V74.5H71.413V74V73.5H69.4565V74ZM73.3695 74V74.5H75.3261V74V73.5H73.3695V74ZM77.2826 74V74.5H79.2391V74V73.5H77.2826V74ZM81.1956 74V74.5H83.1521V74V73.5H81.1956V74ZM85.1087 74V74.5H87.0652V74V73.5H85.1087V74ZM89.0217 74V74.5H90V74V73.5H89.0217V74ZM0 74V75H0.978261V74V73H0V74ZM2.93478 74V75H4.8913V74V73H2.93478V74ZM6.84783 74V75H8.80435V74V73H6.84783V74ZM10.7609 74V75H12.7174V74V73H10.7609V74ZM14.6739 74V75H16.6304V74V73H14.6739V74ZM18.587 74V75H20.5435V74V73H18.587V74ZM22.5 74V75H24.4565V74V73H22.5V74ZM26.413 74V75H28.3696V74V73H26.413V74ZM30.3261 74V75H32.2826V74V73H30.3261V74ZM34.2391 74V75H36.1957V74V73H34.2391V74ZM38.1522 74V75H40.1087V74V73H38.1522V74ZM42.0652 74V75H44.0217V74V73H42.0652V74ZM45.9782 74V75H47.9348V74V73H45.9782V74ZM49.8913 74V75H51.8478V74V73H49.8913V74ZM53.8043 74V75H55.7608V74V73H53.8043V74ZM57.7174 74V75H59.6739V74V73H57.7174V74ZM61.6304 74V75H63.5869V74V73H61.6304V74ZM65.5435 74V75H67.5V74V73H65.5435V74ZM69.4565 74V75H71.413V74V73H69.4565V74ZM73.3695 74V75H75.3261V74V73H73.3695V74ZM77.2826 74V75H79.2391V74V73H77.2826V74ZM81.1956 74V75H83.1521V74V73H81.1956V74ZM85.1087 74V75H87.0652V74V73H85.1087V74ZM89.0217 74V75H90V74V73H89.0217V74Z" fill="#544AFF" mask="url(#path-1-inside-1_2667_2838)"/>
<path fill-rule="evenodd" clip-rule="evenodd" d="M58.3333 23.6667C57.8912 23.6667 57.4673 23.8423 57.1547 24.1549C56.8422 24.4674 56.6666 24.8913 56.6666 25.3334V47.9763L60.4881 44.1549C60.8006 43.8423 61.2246 43.6667 61.6666 43.6667H81.6666C82.1086 43.6667 82.5325 43.4911 82.8451 43.1786C83.1577 42.866 83.3333 42.4421 83.3333 42V25.3334C83.3333 24.8913 83.1577 24.4674 82.8451 24.1549C82.5325 23.8423 82.1086 23.6667 81.6666 23.6667H58.3333ZM54.7977 21.7978C55.7354 20.8602 57.0072 20.3334 58.3333 20.3334H81.6666C82.9927 20.3334 84.2644 20.8602 85.2021 21.7978C86.1398 22.7355 86.6666 24.0073 86.6666 25.3334V42C86.6666 43.3261 86.1398 44.5979 85.2021 45.5356C84.2644 46.4733 82.9927 47 81.6666 47H62.3569L56.1784 53.1786C55.7018 53.6552 54.9849 53.7978 54.3621 53.5398C53.7393 53.2819 53.3333 52.6741 53.3333 52V25.3334C53.3333 24.0073 53.86 22.7355 54.7977 21.7978Z" fill="#544AFF"/>
<path fill-rule="evenodd" clip-rule="evenodd" d="M60 30.3333C60 29.4128 60.7462 28.6666 61.6667 28.6666H71.6667C72.5871 28.6666 73.3333 29.4128 73.3333 30.3333C73.3333 31.2538 72.5871 32 71.6667 32H61.6667C60.7462 32 60 31.2538 60 30.3333Z" fill="#544AFF"/>
<path fill-rule="evenodd" clip-rule="evenodd" d="M60 37C60 36.0796 60.7462 35.3334 61.6667 35.3334H78.3333C79.2538 35.3334 80 36.0796 80 37C80 37.9205 79.2538 38.6667 78.3333 38.6667H61.6667C60.7462 38.6667 60 37.9205 60 37Z" fill="#544AFF"/>
</svg>
