<svg width="101" height="166" viewBox="0 0 101 166" fill="none" xmlns="http://www.w3.org/2000/svg">
<path d="M17.948 76.1346L84.6389 72.9798C87.6078 72.8393 89.922 70.2956 89.7815 67.3267C89.6411 64.3578 87.0973 62.0436 84.1284 62.184L17.4365 65.3389C14.4686 65.4793 12.1544 68.0231 12.2949 70.992C12.4353 73.9609 14.9791 76.275 17.948 76.1346Z" fill="#00FFBE"/>
<path d="M0.81813 57.1087C1.14642 64.0361 7.08227 69.4358 14.0087 69.1075L87.1782 65.6462C94.1046 65.3189 99.5044 59.383 99.177 52.4566L98.3848 35.7032C97.787 23.081 86.9714 13.2417 74.3482 13.8385L21.8906 16.3197C9.26836 16.9175 -0.570938 27.7331 0.0258713 40.3563L0.81813 57.1087Z" fill="#9696FF"/>
<path d="M87.8072 68.5021L13.6518 72.0099C6.99581 72.325 1.80765 78.0283 2.12266 84.6834L2.58285 94.4136C3.86281 121.462 28.1973 167.015 55.2464 165.736C82.2945 164.456 102.221 116.809 100.942 89.7605L100.482 80.0313C100.167 73.3753 94.4632 68.1871 87.8072 68.5021Z" fill="#9696FF"/>
<path d="M13.9781 46.6813C14.1508 50.3305 17.0674 53.2633 20.7176 53.4331C40.473 54.3544 60.8794 53.4455 81.7934 50.525C85.4226 50.0183 88.0689 46.8217 87.8952 43.1621L87.714 39.3251C87.5423 35.6863 84.6408 32.763 81.003 32.5742C60.4951 31.5115 40.0574 32.1225 19.7308 35.3742C16.1736 35.9434 13.6204 39.1135 13.7912 42.7124L13.9781 46.6813Z" fill="#00FFBE"/>
<path d="M66.3041 42.2815C66.4218 44.7618 68.5272 46.6765 71.0065 46.5598C73.4867 46.4421 75.4014 44.3367 75.2847 41.8574C75.1671 39.3772 73.0616 37.4625 70.5814 37.5792C68.1021 37.6968 66.1865 39.8022 66.3041 42.2815Z" fill="#544AFF"/>
<path d="M26.4097 44.1686C26.5264 46.6488 28.6319 48.5636 31.1121 48.4469C33.5914 48.3292 35.507 46.2238 35.3894 43.7445C35.2727 41.2643 33.1672 39.3495 30.687 39.4662C28.2077 39.5839 26.2921 41.6893 26.4097 44.1686Z" fill="#544AFF"/>
<path fill-rule="evenodd" clip-rule="evenodd" d="M70.9542 48.3199C70.957 48.1709 70.8403 48.0514 70.6961 48.0485C70.5471 48.0466 70.4276 48.1624 70.4247 48.3113C70.4219 48.4556 70.5386 48.5761 70.6876 48.578C70.6926 48.578 70.6974 48.578 70.7018 48.578C70.8413 48.5713 70.9561 48.4594 70.9542 48.3199ZM72.3101 48.4053C72.4524 48.3692 72.5368 48.2259 72.5055 48.0836C72.4704 47.9403 72.3262 47.8512 72.1839 47.8872C72.0415 47.9223 71.9571 48.0609 71.9875 48.2089C72.0178 48.3322 72.1326 48.4186 72.2569 48.4129C72.2759 48.4119 72.2901 48.4062 72.3101 48.4053ZM69.3981 48.1633C69.4351 48.0219 69.3564 47.8768 69.2102 47.8398C69.0689 47.799 68.9237 47.8825 68.8867 48.0238C68.8459 48.1652 68.9294 48.3104 69.0708 48.3512C69.1002 48.3597 69.1286 48.3588 69.1524 48.3569C69.2681 48.3521 69.3659 48.28 69.3981 48.1633ZM73.8358 47.8284C73.9667 47.7591 74.0122 47.5988 73.9439 47.4716C73.8794 47.3407 73.7191 47.2904 73.5872 47.3587C73.4562 47.428 73.4107 47.5883 73.479 47.7155C73.5274 47.8142 73.6251 47.8625 73.7267 47.8578C73.7599 47.8559 73.7978 47.8493 73.8358 47.8284ZM67.9255 47.6272C68.0014 47.4982 67.955 47.3369 67.8269 47.261C67.7035 47.1898 67.5413 47.2363 67.4654 47.3597C67.3952 47.4887 67.4359 47.65 67.565 47.7259C67.6096 47.7525 67.6627 47.7591 67.7111 47.7572C67.7965 47.7534 67.8809 47.706 67.9255 47.6272ZM75.1708 46.89C75.277 46.7932 75.2884 46.6243 75.1869 46.5143C75.0911 46.408 74.9222 46.4014 74.8112 46.4981C74.7049 46.5949 74.6982 46.7629 74.795 46.8739C74.851 46.9336 74.9298 46.964 75.0066 46.9602C75.0635 46.9574 75.1252 46.9355 75.1708 46.89ZM66.638 46.7401C66.7395 46.6348 66.7357 46.4668 66.6294 46.3606C66.5241 46.26 66.3562 46.2628 66.2556 46.3691C66.1541 46.4744 66.1579 46.6433 66.2632 46.7439C66.3192 46.7989 66.3875 46.8198 66.4587 46.816C66.526 46.8131 66.5877 46.7856 66.638 46.7401ZM76.2325 45.6518C76.3141 45.5275 76.2771 45.3662 76.1585 45.2855C76.0342 45.2039 75.8672 45.2362 75.7865 45.3605C75.7059 45.4838 75.7419 45.6461 75.8662 45.7267C75.9108 45.7581 75.9697 45.7751 76.0228 45.7723C76.1035 45.7685 76.1841 45.7267 76.2325 45.6518ZM65.6066 45.5579C65.7319 45.4801 65.7679 45.3197 65.6949 45.1935C65.6161 45.0673 65.451 45.0322 65.3296 45.1053C65.2034 45.1831 65.1635 45.3482 65.2413 45.4696C65.2935 45.5588 65.3874 45.6025 65.4833 45.5977C65.5212 45.5958 65.5687 45.5844 65.6066 45.5579ZM76.9527 44.1896C76.9991 44.053 76.9242 43.8974 76.7876 43.8509C76.6509 43.8044 76.5001 43.8794 76.4488 44.016C76.4023 44.1536 76.4773 44.3083 76.6139 44.3548C76.6481 44.3623 76.6822 44.3709 76.7154 44.369C76.817 44.3642 76.9147 44.2969 76.9527 44.1896ZM64.9007 44.1583C65.043 44.1185 65.1227 43.9705 65.0772 43.8281C65.0326 43.6906 64.8846 43.6109 64.747 43.6517C64.6047 43.6963 64.525 43.8443 64.5696 43.9819C64.5696 43.9812 64.5699 43.9828 64.5705 43.9866C64.6047 44.1005 64.7185 44.1764 64.8381 44.1707C64.858 44.1697 64.8817 44.164 64.9007 44.1583ZM77.2857 42.5918C77.298 42.4467 77.1861 42.3176 77.0409 42.3053C76.8967 42.2929 76.7667 42.4049 76.7543 42.5491C76.742 42.6943 76.854 42.8233 76.9991 42.8357C77.0086 42.8357 77.0229 42.8347 77.0324 42.8347C77.1623 42.8281 77.2724 42.7275 77.2857 42.5918ZM64.82 42.3546C64.82 42.3499 64.82 42.3499 64.8191 42.3451C64.8191 42.3407 64.8188 42.3341 64.8181 42.3252C64.8115 42.1819 64.691 42.0671 64.542 42.0738C64.3978 42.0804 64.2839 42.2066 64.2906 42.3508C64.2912 42.3553 64.2915 42.36 64.2915 42.3651C64.2915 42.3695 64.2919 42.3742 64.2925 42.3793C64.2991 42.5235 64.4196 42.6374 64.5686 42.6307C64.7128 42.6241 64.8267 42.4979 64.82 42.3546ZM76.9925 41.2692C77.1405 41.2426 77.2345 41.1079 77.2136 40.9646C77.187 40.8175 77.0485 40.7227 76.9052 40.7483C76.7619 40.7701 76.6623 40.9096 76.6889 41.0528C76.7098 41.1857 76.8293 41.2815 76.964 41.2749C76.9735 41.2749 76.983 41.2692 76.9925 41.2692ZM64.9405 40.8337C64.9718 40.6932 64.8789 40.5481 64.7375 40.5215C64.5923 40.4892 64.4519 40.5832 64.4206 40.7236C64.394 40.8697 64.4823 41.0092 64.6284 41.0415C64.6521 41.0443 64.6711 41.0434 64.6948 41.0424C64.8105 41.0367 64.9168 40.9551 64.9405 40.8337ZM76.6035 39.753C76.7354 39.6941 76.7951 39.5376 76.7354 39.4009C76.6765 39.269 76.52 39.2093 76.3834 39.2681C76.2515 39.3269 76.1917 39.4844 76.2505 39.6211C76.2989 39.7197 76.4023 39.7824 76.5086 39.7767C76.5371 39.7757 76.5703 39.7643 76.6035 39.753ZM65.4311 39.4209C65.4975 39.288 65.4415 39.1267 65.3134 39.066C65.1806 39.0005 65.024 39.0508 64.9586 39.1837C64.8921 39.3165 64.9434 39.4731 65.0762 39.5385C65.1205 39.56 65.1641 39.5692 65.2072 39.566C65.2982 39.5622 65.3874 39.5091 65.4311 39.4209ZM75.8416 38.3847C75.9573 38.288 75.9782 38.1238 75.8862 38.0081C75.7941 37.8971 75.6243 37.8762 75.5133 37.9682C75.3975 38.0602 75.3767 38.2244 75.4687 38.3402C75.5247 38.4094 75.6082 38.4445 75.6898 38.4407C75.7429 38.4379 75.7998 38.4208 75.8416 38.3847ZM66.2613 38.1703C66.3571 38.0593 66.3448 37.8914 66.2347 37.7965C66.119 37.7006 65.952 37.713 65.8561 37.824C65.7603 37.9341 65.7727 38.102 65.8827 38.1978C65.9387 38.2434 66.0061 38.2633 66.0687 38.2604C66.1408 38.2576 66.212 38.2301 66.2613 38.1703ZM74.7675 37.2433C74.8539 37.1285 74.8311 36.9615 74.7163 36.8704C74.5967 36.785 74.4345 36.8068 74.3434 36.9217C74.258 37.0412 74.2808 37.2092 74.3946 37.2945C74.4496 37.3344 74.5085 37.3524 74.5711 37.3486C74.6432 37.3458 74.7182 37.3088 74.7675 37.2433ZM67.3733 37.1655C67.4938 37.083 67.5194 36.9131 67.4369 36.7964C67.3543 36.6759 67.1855 36.6456 67.0687 36.7281C66.9473 36.8154 66.9169 36.9795 66.9995 37.101C67.0564 37.175 67.1447 37.2148 67.231 37.2101C67.2784 37.2082 67.3268 37.1959 67.3733 37.1655ZM73.4439 36.4065C73.4999 36.2698 73.4354 36.1142 73.3025 36.0573C73.1659 36.0013 73.0103 36.0668 72.9543 36.2044C72.8974 36.3362 72.9628 36.4918 73.1004 36.5478C73.1352 36.5655 73.1722 36.5734 73.2114 36.5715C73.312 36.5668 73.406 36.5051 73.4439 36.4065ZM68.696 36.4681C68.8326 36.4131 68.9028 36.2613 68.8535 36.1237C68.8032 35.9871 68.6504 35.9168 68.5091 35.9719C68.5084 35.9719 68.51 35.9719 68.5138 35.9719C68.3724 36.0212 68.3022 36.174 68.3572 36.3106C68.3962 36.4245 68.5053 36.4918 68.6153 36.4861C68.6451 36.4849 68.6719 36.4789 68.696 36.4681ZM71.9542 35.9244C71.977 35.7793 71.8745 35.6445 71.7294 35.6275C71.5842 35.6056 71.4495 35.7034 71.4267 35.8485C71.4096 35.9937 71.5074 36.1284 71.6525 36.1503C71.6724 36.1541 71.6867 36.1531 71.7057 36.1522C71.8262 36.1465 71.9372 36.0544 71.9542 35.9244ZM70.1562 36.1246C70.2995 36.1085 70.4086 35.9785 70.3925 35.8296C70.3764 35.6863 70.2454 35.5819 70.0974 35.5943C69.9541 35.6104 69.8498 35.7404 69.8611 35.8884C69.8773 36.0269 70.0025 36.1322 70.1372 36.1256C70.1461 36.125 70.1524 36.1246 70.1562 36.1246ZM64.8181 42.3252L64.8191 42.33C64.8181 42.3252 64.8191 42.33 64.8181 42.3252Z" fill="#544AFF"/>
<path fill-rule="evenodd" clip-rule="evenodd" d="M31.0816 50.2061C31.0845 50.0571 30.9678 49.9375 30.8236 49.9347C30.6736 49.9319 30.555 50.0486 30.5522 50.1975C30.5493 50.3418 30.6651 50.4613 30.815 50.4641C30.8194 50.4641 30.8242 50.4638 30.8293 50.4632C30.9678 50.4566 31.0835 50.3455 31.0816 50.2061ZM32.4366 50.2915C32.5789 50.2554 32.6633 50.1121 32.633 49.9698C32.5979 49.8265 32.4536 49.7374 32.3113 49.7734C32.169 49.8085 32.0836 49.947 32.1149 50.0951C32.1443 50.2184 32.2591 50.3047 32.3844 50.2981C32.4033 50.2971 32.4176 50.2924 32.4366 50.2915ZM29.5256 50.0495C29.5626 49.9081 29.4829 49.763 29.3367 49.726C29.1954 49.6852 29.0502 49.7687 29.0142 49.91C28.9724 50.0514 29.0568 50.1966 29.1982 50.2374C29.2276 50.2459 29.2561 50.245 29.2798 50.2431C29.3946 50.2383 29.4923 50.1662 29.5256 50.0495ZM33.9623 49.7146C34.0941 49.6453 34.1387 49.485 34.0704 49.3578C34.0069 49.2259 33.8456 49.1766 33.7146 49.2449C33.5827 49.3142 33.5372 49.4745 33.6065 49.6017C33.6539 49.7003 33.7526 49.7478 33.8532 49.743C33.8873 49.7421 33.9253 49.7355 33.9623 49.7146ZM28.053 49.5125C28.1289 49.3844 28.0824 49.2231 27.9543 49.1472C27.83 49.076 27.6687 49.1225 27.5928 49.2459C27.5216 49.3739 27.5634 49.5362 27.6915 49.6121C27.737 49.6387 27.7902 49.6453 27.8376 49.6434C27.924 49.6396 28.0084 49.5922 28.053 49.5125ZM35.2982 48.7762C35.4045 48.6794 35.4159 48.5105 35.3143 48.4004C35.2176 48.2942 35.0496 48.2875 34.9386 48.3843C34.8323 48.4802 34.8257 48.649 34.9225 48.7601C34.9785 48.8198 35.0563 48.8492 35.1331 48.8464C35.191 48.8436 35.2527 48.8217 35.2982 48.7762ZM26.7654 48.6263C26.866 48.521 26.8632 48.3521 26.7569 48.2467C26.6516 48.1462 26.4836 48.149 26.3821 48.2553C26.2815 48.3606 26.2844 48.5285 26.3907 48.6301C26.4457 48.6851 26.514 48.706 26.5861 48.7022C26.6535 48.6993 26.7142 48.6718 26.7654 48.6263ZM36.3599 47.538C36.4406 47.4137 36.4045 47.2524 36.285 47.1708C36.1616 47.0901 35.9946 47.1224 35.914 47.2467C35.8324 47.37 35.8694 47.5323 35.9937 47.6129C36.0383 47.6442 36.0962 47.6613 36.1493 47.6585C36.2309 47.6547 36.3106 47.612 36.3599 47.538ZM25.7331 47.444C25.8593 47.3662 25.8954 47.2059 25.8223 47.0797C25.7436 46.9535 25.5785 46.9174 25.457 46.9905C25.3308 47.0693 25.291 47.2343 25.3688 47.3558C25.4209 47.445 25.5139 47.4886 25.6107 47.4839C25.6487 47.482 25.6961 47.4706 25.7331 47.444ZM37.0792 46.0758C37.1256 45.9392 37.0516 45.7836 36.9141 45.7371C36.7774 45.6906 36.6275 45.7656 36.5763 45.9022C36.5298 46.0388 36.6047 46.1944 36.7414 46.2409C36.7755 46.2485 36.8097 46.2571 36.8429 46.2552C36.9435 46.2504 37.0412 46.183 37.0792 46.0758ZM25.0272 46.0445C25.1705 46.0047 25.2492 45.8557 25.2046 45.7143C25.1591 45.5768 25.0111 45.4971 24.8735 45.5379C24.7321 45.5824 24.6524 45.7305 24.697 45.868C24.697 45.8674 24.697 45.869 24.697 45.8728C24.7312 45.9867 24.846 46.0626 24.9655 46.0569C24.9845 46.0559 25.0082 46.0502 25.0272 46.0445ZM37.4131 44.478C37.4255 44.3328 37.3135 44.2038 37.1683 44.1915C37.0232 44.1791 36.8941 44.2911 36.8818 44.4353C36.8695 44.5805 36.9814 44.7095 37.1266 44.7219C37.1361 44.7219 37.1503 44.7209 37.1598 44.7209C37.2888 44.7143 37.3998 44.6127 37.4131 44.478ZM24.9475 44.2408C24.9465 44.2351 24.9465 44.2351 24.9465 44.2304C24.9465 44.2266 24.9462 44.2203 24.9456 44.2114C24.9389 44.0672 24.8175 43.9533 24.6695 43.96C24.5253 43.9666 24.4114 44.0928 24.4181 44.237C24.4181 44.2414 24.4184 44.2462 24.419 44.2512C24.419 44.2557 24.419 44.2604 24.419 44.2655C24.4256 44.4097 24.5471 44.5236 24.6951 44.5169C24.8393 44.5103 24.9541 44.3841 24.9475 44.2408ZM37.119 43.1554C37.267 43.1288 37.3619 42.9941 37.341 42.8508C37.3145 42.7037 37.175 42.6088 37.0327 42.6345C36.8894 42.6563 36.7898 42.7948 36.8163 42.9381C36.8363 43.0719 36.9568 43.1677 37.0905 43.161C37.1 43.1601 37.1095 43.1554 37.119 43.1554ZM25.067 42.7198C25.0993 42.5794 25.0063 42.4343 24.8649 42.4077C24.7198 42.3754 24.5793 42.4694 24.548 42.6098C24.5205 42.755 24.6097 42.8954 24.7549 42.9267C24.7795 42.9305 24.7985 42.9295 24.8223 42.9286C24.938 42.9229 25.0443 42.8413 25.067 42.7198ZM36.73 41.6391C36.8619 41.5803 36.9216 41.4237 36.8628 41.2871C36.804 41.1552 36.6465 41.0955 36.5099 41.1543C36.378 41.2131 36.3182 41.3706 36.378 41.5073C36.4254 41.6059 36.5298 41.6685 36.6351 41.6628C36.6636 41.6619 36.6968 41.6505 36.73 41.6391ZM25.5585 41.307C25.624 41.1742 25.569 41.0129 25.4409 40.9522C25.3071 40.8858 25.1515 40.937 25.0851 41.0698C25.0196 41.2027 25.0708 41.3592 25.2037 41.4247C25.2479 41.4456 25.2916 41.4547 25.3346 41.4522C25.4257 41.4475 25.5149 41.3953 25.5585 41.307ZM35.9681 40.2709C36.0838 40.1742 36.1047 40.01 36.0127 39.8943C35.9216 39.7832 35.7517 39.7624 35.6407 39.8534C35.525 39.9455 35.5041 40.1106 35.5961 40.2263C35.6521 40.2956 35.7356 40.3298 35.8172 40.326C35.8694 40.3241 35.9263 40.307 35.9681 40.2709ZM26.3888 40.0555C26.4846 39.9455 26.4722 39.7775 26.3612 39.6817C26.2464 39.5868 26.0785 39.5992 25.9827 39.7092C25.8868 39.8202 25.9001 39.9882 26.0102 40.0831C26.0652 40.1286 26.1335 40.1495 26.1961 40.1466C26.2682 40.1438 26.3385 40.1163 26.3888 40.0555ZM34.895 39.1295C34.9813 39.0147 34.9585 38.8477 34.8437 38.7566C34.7242 38.6712 34.5619 38.693 34.4708 38.8078C34.3854 38.9274 34.4073 39.0944 34.5221 39.1807C34.5771 39.2206 34.6356 39.2386 34.6976 39.2348C34.7697 39.231 34.8447 39.194 34.895 39.1295ZM27.4998 39.0517C27.6213 38.9682 27.6469 38.7993 27.5643 38.6826C27.4818 38.5621 27.312 38.5308 27.1962 38.6133C27.0748 38.7016 27.0444 38.8657 27.1269 38.9872C27.1829 39.0612 27.2721 39.101 27.3584 39.0963C27.4059 39.0944 27.4533 39.0821 27.4998 39.0517ZM33.5713 38.2926C33.6273 38.1551 33.5628 37.9994 33.43 37.9435C33.2924 37.8875 33.1368 37.953 33.0808 38.0896C33.0248 38.2224 33.0893 38.378 33.2269 38.434C33.2623 38.4517 33.2997 38.4596 33.3389 38.4577C33.4395 38.453 33.5324 38.3904 33.5713 38.2926ZM28.8234 38.3534C28.9601 38.2993 29.0303 38.1475 28.98 38.0099C28.9306 37.8732 28.7779 37.803 28.6365 37.8581C28.6352 37.8581 28.6368 37.8577 28.6413 37.8571C28.4989 37.9074 28.4297 38.0602 28.4838 38.1968C28.5236 38.3107 28.6318 38.3771 28.7428 38.3723C28.7719 38.3711 28.7988 38.3647 28.8234 38.3534ZM32.0817 37.8097C32.1035 37.6645 32.001 37.5307 31.8559 37.5136C31.7107 37.4909 31.576 37.5886 31.5541 37.7338C31.5371 37.8789 31.6348 38.0146 31.78 38.0364C31.7999 38.0402 31.8141 38.0393 31.8331 38.0383C31.9527 38.0327 32.0637 37.9406 32.0817 37.8097ZM30.2837 38.0108C30.427 37.9947 30.5361 37.8638 30.5199 37.7157C30.5029 37.5725 30.3729 37.4681 30.2249 37.4795C30.0806 37.4966 29.9763 37.6256 29.9886 37.7746C30.0047 37.9131 30.13 38.0184 30.2637 38.0118C30.2726 38.0111 30.2793 38.0108 30.2837 38.0108ZM24.9456 44.2114V44.2161C24.9456 44.2114 24.9456 44.2161 24.9456 44.2114Z" fill="#544AFF"/>
<path d="M5.27179 6.61991C5.33726 7.9957 4.27457 9.16465 2.89783 9.22917C1.52203 9.29464 0.354032 8.23196 0.288563 6.85522C0.223094 5.47942 1.28673 4.31142 2.66252 4.24595C4.03832 4.18143 5.20632 5.24411 5.27179 6.61991Z" fill="url(#paint0_linear_2667_2721)"/>
<path d="M3.75355 27.326C3.75355 27.326 9.74063 27.8061 12.627 19.8844L10.8906 16.6992C10.3004 15.6147 8.93698 15.2219 7.86006 15.8263L4.52493 17.6954C3.79244 18.1063 3.35504 18.8947 3.39489 19.7335L3.75355 27.326Z" fill="#9696FF"/>
<path d="M3.06967 7.95864L5.62579 18.7506C5.68747 19.0077 5.87248 19.2164 6.12108 19.3075C6.36872 19.3986 6.64578 19.3588 6.85831 19.2022L7.43331 18.779C7.94377 18.4024 8.11266 17.7164 7.83561 17.1461L3.32869 7.86661C3.25658 7.71764 3.03171 7.79829 3.06967 7.95864Z" fill="url(#paint1_linear_2667_2721)"/>
<path d="M76.5733 26.4854C77.9254 26.4218 79.0279 25.3335 79.0848 23.9558C79.1456 22.4975 78.0117 21.2678 76.5543 21.2071C57.2932 20.412 39.7599 21.1862 22.9552 23.5734C21.5102 23.7784 20.5063 25.1153 20.7113 26.5603C20.9162 28.0044 22.2493 29.0102 23.6982 28.8043C40.1811 26.4636 57.3995 25.7045 76.3361 26.4863C76.4158 26.4895 76.4949 26.4892 76.5733 26.4854Z" fill="#544AFF"/>
<path fill-rule="evenodd" clip-rule="evenodd" d="M51.0234 54.8591C61.6872 54.3552 72.4108 53.3182 83.1249 51.7517C87.0531 51.1776 89.8635 47.5493 89.6633 43.3119L89.4612 39.0355C89.2619 34.8313 86.1479 31.4857 82.2179 31.2542C59.0362 29.8926 38.1583 30.8443 18.3895 34.1643C14.5648 34.8066 11.8275 38.4235 12.0239 42.5775L12.2335 46.999C12.4337 51.227 15.5601 54.5725 19.5072 54.7822C29.9007 55.3363 40.4326 55.36 51.0234 54.8591ZM48.5716 31.4715C59.2876 30.9648 70.442 31.0606 82.1884 31.7514C85.8642 31.9668 88.7771 35.1083 88.964 39.0592L89.1661 43.3356C89.3549 47.3159 86.7267 50.7231 83.0528 51.2602C61.7308 54.377 40.3596 55.3951 19.5329 54.286C15.8429 54.0896 12.9176 50.947 12.7298 46.9762L12.521 42.5537C12.336 38.6512 14.895 35.2554 18.4721 34.6548C28.188 33.0228 38.1744 31.9639 48.5716 31.4715Z" fill="#9696FF"/>
<path d="M65.6237 83.4965C65.6857 83.4946 65.7477 83.4854 65.8096 83.469C65.8713 83.4557 65.9282 83.4339 65.9842 83.4073C66.0412 83.3807 66.0971 83.3494 66.1484 83.3086C66.1996 83.2732 66.2455 83.2308 66.286 83.1815C66.4558 82.9955 66.5488 82.7412 66.5374 82.4917C66.5251 82.2374 66.4083 81.9973 66.2224 81.8237C65.8504 81.4859 65.2071 81.5163 64.8646 81.8882C64.8238 81.9376 64.7878 81.9878 64.7517 82.0419C64.7207 82.0957 64.6945 82.1517 64.673 82.2099C64.6521 82.2734 64.635 82.3313 64.6284 82.3949C64.6182 82.4575 64.6151 82.5201 64.6189 82.5828C64.6208 82.6447 64.6299 82.7067 64.6464 82.7687C64.6587 82.8304 64.6805 82.8873 64.7081 82.9433C64.7346 83.005 64.7659 83.0562 64.802 83.1075C64.8418 83.1587 64.8839 83.2049 64.9282 83.246C64.9737 83.2915 65.0288 83.3276 65.0828 83.3589C65.1379 83.395 65.192 83.4206 65.2508 83.4424C65.3087 83.4633 65.3722 83.4794 65.4358 83.486C65.4937 83.4984 65.5611 83.4993 65.6237 83.4965Z" fill="#00FFBE"/>
<path d="M43.8765 83.5641C43.8519 83.0365 43.404 82.6248 42.8765 82.6494C42.3442 82.675 41.9324 83.1267 41.9571 83.6552C41.9827 84.1827 42.4343 84.5936 42.9676 84.5689C43.4951 84.5442 43.9012 84.0916 43.8765 83.5641ZM48.411 83.3497C48.3853 82.8221 47.9337 82.4103 47.4062 82.435C46.8729 82.4606 46.4668 82.9122 46.4915 83.4398C46.5162 83.9683 46.964 84.3801 47.4963 84.3545C48.0248 84.3298 48.4356 83.8772 48.411 83.3497ZM52.9397 83.1352C52.915 82.6077 52.4672 82.1959 51.9349 82.2215C51.4074 82.2462 50.9956 82.6978 51.0212 83.2263C51.0458 83.7539 51.4975 84.1656 52.026 84.14C52.5583 84.1154 52.9653 83.6628 52.9397 83.1352ZM57.4741 82.9208C57.4495 82.3932 56.9969 81.9815 56.4693 82.0061C55.937 82.0317 55.53 82.4834 55.5547 83.0119C55.5803 83.5394 56.0272 83.9512 56.5604 83.9256C57.088 83.9009 57.4988 83.4483 57.4741 82.9208ZM62.0038 82.7064C61.9782 82.1788 61.5313 81.767 60.9981 81.7926C60.4705 81.8173 60.0597 82.2699 60.0843 82.7974C60.109 83.325 60.5616 83.7368 61.0892 83.7112C61.6214 83.6865 62.0285 83.2339 62.0038 82.7064Z" fill="#00FFBE"/>
<path d="M38.4331 84.7832C38.6874 84.7709 38.9275 84.6589 39.0964 84.4682C39.1413 84.4227 39.1789 84.3727 39.2093 84.3183C39.2406 84.2642 39.2719 84.2092 39.2928 84.1513C39.3136 84.0868 39.3307 84.0289 39.3373 83.9663C39.3475 83.903 39.3506 83.8404 39.3468 83.7784C39.3354 83.5241 39.2225 83.2841 39.0318 83.1152C38.9869 83.0696 38.9373 83.0317 38.8829 83.0013C38.8278 82.9662 38.7737 82.9397 38.7102 82.9188C38.6514 82.897 38.5935 82.8808 38.5308 82.8742C38.2158 82.8268 37.8894 82.9435 37.6741 83.1788C37.5052 83.3647 37.416 83.6143 37.4283 83.8686C37.4302 83.9312 37.4394 83.9932 37.4558 84.0545C37.4691 84.1171 37.4909 84.1731 37.5175 84.2348C37.5441 84.2908 37.5754 84.343 37.6162 84.3933C37.6522 84.4445 37.693 84.4907 37.7386 84.5318C37.7889 84.5783 37.8382 84.6143 37.8932 84.6447C37.9473 84.6807 38.0014 84.7073 38.0602 84.7282C38.1238 84.75 38.1826 84.7662 38.2453 84.7728C38.3079 84.7835 38.3705 84.787 38.4331 84.7832Z" fill="#00FFBE"/>
<path d="M89.9866 2.61301C90.052 3.9888 91.22 5.05148 92.5968 4.98601C93.9726 4.92149 95.0353 3.75254 94.9698 2.37675C94.9053 1.00095 93.7363 -0.0617309 92.3605 0.00278918C90.9847 0.068258 89.922 1.23626 89.9866 2.61301Z" fill="url(#paint2_linear_2667_2721)"/>
<path d="M93.4529 23.0829C93.4529 23.0829 87.5379 24.1266 83.9172 16.5123L85.3442 13.1772C85.83 12.0415 87.1499 11.5225 88.279 12.0215L91.7754 13.5681C92.5439 13.9078 93.0534 14.6517 93.0933 15.4914L93.4529 23.0829Z" fill="#9696FF"/>
<path d="M92.0389 3.66994C92.0968 3.51529 92.3283 3.57411 92.3056 3.73731L90.7723 14.7702C90.7381 15.0217 90.5796 15.238 90.351 15.3471C90.1223 15.4562 89.8538 15.4439 89.6365 15.3139L88.9828 14.9211C88.44 14.5947 88.2066 13.9277 88.4287 13.3337L92.0389 3.66994Z" fill="url(#paint3_linear_2667_2721)"/>
<defs>
<linearGradient id="paint0_linear_2667_2721" x1="-0.0108864" y1="6.72665" x2="4.96453" y2="37.9592" gradientUnits="userSpaceOnUse">
<stop stop-color="#4F52FF"/>
<stop offset="1" stop-color="#4042E2"/>
</linearGradient>
<linearGradient id="paint1_linear_2667_2721" x1="-11.4366" y1="8.60821" x2="-7.02912" y2="36.2756" gradientUnits="userSpaceOnUse">
<stop stop-color="#4F52FF"/>
<stop offset="1" stop-color="#4042E2"/>
</linearGradient>
<linearGradient id="paint2_linear_2667_2721" x1="87.9648" y1="-8.33007" x2="92.9401" y2="22.9022" gradientUnits="userSpaceOnUse">
<stop stop-color="#4F52FF"/>
<stop offset="1" stop-color="#4042E2"/>
</linearGradient>
<linearGradient id="paint3_linear_2667_2721" x1="71.7347" y1="-5.34645" x2="76.3236" y2="23.46" gradientUnits="userSpaceOnUse">
<stop stop-color="#4F52FF"/>
<stop offset="1" stop-color="#4042E2"/>
</linearGradient>
</defs>
</svg>
