<svg width="90" height="74" viewBox="0 0 90 74" fill="none" xmlns="http://www.w3.org/2000/svg">
<mask id="path-1-inside-1_2667_2834" fill="white">
<path d="M90 0H0V74H90V0Z"/>
</mask>
<path d="M90 74V74.5H89.0217V74V73.5H90V74ZM87.0652 74V74.5H85.1087V74V73.5H87.0652V74ZM83.1522 74V74.5H81.1957V74V73.5H83.1522V74ZM79.2391 74V74.5H77.2826V74V73.5H79.2391V74ZM75.3261 74V74.5H73.3696V74V73.5H75.3261V74ZM71.413 74V74.5H69.4565V74V73.5H71.413V74ZM67.5 74V74.5H65.5435V74V73.5H67.5V74ZM63.587 74V74.5H61.6304V74V73.5H63.587V74ZM59.6739 74V74.5H57.7174V74V73.5H59.6739V74ZM55.7609 74V74.5H53.8043V74V73.5H55.7609V74ZM51.8478 74V74.5H49.8913V74V73.5H51.8478V74ZM47.9348 74V74.5H45.9783V74V73.5H47.9348V74ZM44.0218 74V74.5H42.0652V74V73.5H44.0218V74ZM40.1087 74V74.5H38.1522V74V73.5H40.1087V74ZM36.1957 74V74.5H34.2392V74V73.5H36.1957V74ZM32.2826 74V74.5H30.3261V74V73.5H32.2826V74ZM28.3696 74V74.5H26.4131V74V73.5H28.3696V74ZM24.4565 74V74.5H22.5V74V73.5H24.4565V74ZM20.5435 74V74.5H18.587V74V73.5H20.5435V74ZM16.6305 74V74.5H14.6739V74V73.5H16.6305V74ZM12.7174 74V74.5H10.7609V74V73.5H12.7174V74ZM8.80438 74V74.5H6.84786V74V73.5H8.80438V74ZM4.89134 74V74.5H2.93482V74V73.5H4.89134V74ZM0.978302 74V74.5H0V74V73.5H0.978302V74ZM90 74V75H89.0217V74V73H90V74ZM87.0652 74V75H85.1087V74V73H87.0652V74ZM83.1522 74V75H81.1957V74V73H83.1522V74ZM79.2391 74V75H77.2826V74V73H79.2391V74ZM75.3261 74V75H73.3696V74V73H75.3261V74ZM71.413 74V75H69.4565V74V73H71.413V74ZM67.5 74V75H65.5435V74V73H67.5V74ZM63.587 74V75H61.6304V74V73H63.587V74ZM59.6739 74V75H57.7174V74V73H59.6739V74ZM55.7609 74V75H53.8043V74V73H55.7609V74ZM51.8478 74V75H49.8913V74V73H51.8478V74ZM47.9348 74V75H45.9783V74V73H47.9348V74ZM44.0218 74V75H42.0652V74V73H44.0218V74ZM40.1087 74V75H38.1522V74V73H40.1087V74ZM36.1957 74V75H34.2392V74V73H36.1957V74ZM32.2826 74V75H30.3261V74V73H32.2826V74ZM28.3696 74V75H26.4131V74V73H28.3696V74ZM24.4565 74V75H22.5V74V73H24.4565V74ZM20.5435 74V75H18.587V74V73H20.5435V74ZM16.6305 74V75H14.6739V74V73H16.6305V74ZM12.7174 74V75H10.7609V74V73H12.7174V74ZM8.80438 74V75H6.84786V74V73H8.80438V74ZM4.89134 74V75H2.93482V74V73H4.89134V74ZM0.978302 74V75H0V74V73H0.978302V74Z" fill="#00FFBE" mask="url(#path-1-inside-1_2667_2834)"/>
<path fill-rule="evenodd" clip-rule="evenodd" d="M21.6667 23.6667C28.1101 23.6667 33.3334 28.8901 33.3334 35.3334C33.3334 41.7767 28.1101 47 21.6667 47C15.2234 47 10.0001 41.7767 10.0001 35.3334C10.0001 28.8901 15.2234 23.6667 21.6667 23.6667ZM36.6667 35.3334C36.6667 27.0491 29.951 20.3334 21.6667 20.3334C13.3825 20.3334 6.66675 27.0491 6.66675 35.3334C6.66675 43.6176 13.3825 50.3334 21.6667 50.3334C29.951 50.3334 36.6667 43.6176 36.6667 35.3334Z" fill="#00FFBE"/>
<path fill-rule="evenodd" clip-rule="evenodd" d="M13.3451 43.6548C12.6942 43.0039 11.6389 43.0039 10.9881 43.6548L3.82141 50.8214C3.17054 51.4723 3.17054 52.5276 3.82141 53.1785C4.47228 53.8293 5.52756 53.8293 6.17843 53.1785L13.3451 46.0118C13.996 45.3609 13.996 44.3057 13.3451 43.6548Z" fill="#00FFBE"/>
</svg>
