<svg width="48" height="40" viewBox="0 0 48 40" fill="none" xmlns="http://www.w3.org/2000/svg">
<path d="M30.9666 29.3453V38.2775H27.2157C27.2304 38.2551 27.2424 38.2336 27.2545 38.2112V38.2087C27.2329 36.9151 26.5384 35.7867 25.5072 35.1575C24.9521 34.8167 24.2988 34.6222 23.6016 34.6222C21.5842 34.6222 19.9463 36.2566 19.9463 38.2775H16.3442V16.3446H17.9649C25.144 16.3446 30.9666 22.1663 30.9666 29.3453Z" fill="url(#paint0_linear_2676_101832)"/>
<path d="M45.7013 1.75714H31.0789V16.3794H45.7013V1.75714Z" fill="url(#paint1_linear_2676_101832)"/>
<path d="M30.9666 26.2262V29.3453C30.9666 22.1663 25.144 16.3446 17.9649 16.3446H1.72266V12.6893C3.74013 12.6893 5.37804 11.0514 5.37804 9.03396C5.37804 7.01651 3.74013 5.37776 1.72266 5.37776V1.72241H15.845C16.0103 1.72241 16.179 1.72758 16.3442 1.74221C23.877 2.22678 30.8806 8.95048 30.9658 25.9112C30.9666 26.0153 30.9666 26.1203 30.9666 26.2262Z" fill="url(#paint2_linear_2676_101832)"/>
<path d="M30.9658 29.3608V32.1856H30.9512V30.5554C30.9512 23.4513 25.2335 17.6684 18.1302 17.5832C17.1602 17.5711 16.4949 17.5634 16.3442 17.5634V16.3593H17.9649C19.1424 16.3593 20.2828 16.515 21.369 16.8103C21.4594 16.8326 21.5497 16.8593 21.6393 16.886C21.6487 16.8886 21.6591 16.8912 21.6659 16.8937C21.8364 16.9445 22.0051 16.9987 22.1703 17.0573C22.2581 17.0865 22.3459 17.1184 22.4337 17.1502C22.5335 17.1864 22.6334 17.2234 22.7306 17.2621C22.7599 17.2742 22.7892 17.2845 22.8184 17.2965C22.9768 17.3602 23.1352 17.4282 23.2884 17.4988C23.383 17.5427 23.4812 17.5866 23.5732 17.6331C23.6705 17.677 23.7635 17.7234 23.8581 17.7742C27.2605 19.5042 29.797 22.6922 30.6499 26.5154C30.7179 26.808 30.7721 27.1049 30.8178 27.407C30.8668 27.7315 30.903 28.0577 30.9271 28.3891C30.9348 28.4984 30.9417 28.6086 30.9469 28.7205C30.9563 28.9322 30.9641 29.1465 30.9641 29.3617L30.9658 29.3608Z" fill="#544AFF"/>
<defs>
<linearGradient id="paint0_linear_2676_101832" x1="17.0793" y1="38.7018" x2="27.8533" y2="20.0403" gradientUnits="userSpaceOnUse">
<stop stop-color="#00FFBE"/>
<stop offset="0.42" stop-color="#01FDBE"/>
<stop offset="0.57" stop-color="#08F8C2"/>
<stop offset="0.67" stop-color="#14F0C8"/>
<stop offset="0.76" stop-color="#25E4D0"/>
<stop offset="0.83" stop-color="#3BD5DB"/>
<stop offset="0.85" stop-color="#41D1DE"/>
</linearGradient>
<linearGradient id="paint1_linear_2676_101832" x1="33.3967" y1="0.418771" x2="43.3832" y2="17.717" gradientUnits="userSpaceOnUse">
<stop offset="0.02" stop-color="#00FFEE"/>
<stop offset="0.21" stop-color="#03FCEE"/>
<stop offset="0.37" stop-color="#0DF5EF"/>
<stop offset="0.52" stop-color="#1FE8F1"/>
<stop offset="0.66" stop-color="#38D7F4"/>
<stop offset="0.8" stop-color="#58C0F8"/>
<stop offset="0.93" stop-color="#7FA5FC"/>
<stop offset="1" stop-color="#9696FF"/>
</linearGradient>
<linearGradient id="paint2_linear_2676_101832" x1="1.72266" y1="15.5339" x2="30.9666" y2="15.5339" gradientUnits="userSpaceOnUse">
<stop stop-color="#9696FF"/>
<stop offset="0.68" stop-color="#30DDD3"/>
<stop offset="1" stop-color="#00FFBE"/>
</linearGradient>
</defs>
</svg>
